<svg xmlns="http://www.w3.org/2000/svg" xmlns:v="https://svgstorm.com"
viewBox = "0 0 1024 1024"
width="1024"
height="1024">
<g fill="None" fill-opacity="0.0" stroke="#FEFEFE" stroke-opacity="1.00" stroke-width="0.3"><path d="
M 0.00 1024.00 
L 1024.00 1024.00
L 1024.00 0.00
L 0.00 0.00
L 0.00 1024.00
M 343.00 290.00 
C 346.22 296.72 347.42 307.06 353.92 312.08 C 360.42 317.11 362.91 326.16 372.25 327.75 C 381.58 329.34 389.35 339.49 377.00 341.00 C 364.65 342.50 360.37 336.76 351.31 333.69 C 342.24 330.63 338.54 324.88 332.25 318.75 C 325.96 312.63 323.30 305.25 319.00 298.00
C 270.40 308.07 232.25 258.39 245.78 213.78 C 259.30 169.17 313.99 153.88 349.75 181.25 C 385.51 208.62 382.01 267.22 343.00 290.00
M 487.00 205.00 
C 497.01 215.01 504.99 227.44 512.00 239.00
C 518.28 245.80 521.78 253.25 523.00 262.00
C 524.25 265.27 524.77 268.70 526.00 272.00
C 526.06 272.16 527.00 272.00 527.00 272.00
C 537.07 277.76 551.71 268.11 562.07 270.07 C 572.43 272.04 591.46 265.69 600.00 272.00
C 600.50 272.00 601.00 272.00 601.00 272.00
C 605.41 272.00 608.59 273.34 612.00 274.00
C 616.18 274.33 619.98 274.15 624.00 275.00
C 623.70 273.43 624.25 271.39 626.00 271.00
C 627.23 266.66 628.85 262.39 630.00 258.00
C 630.35 256.65 630.65 255.35 631.00 254.00
C 633.31 245.08 637.48 237.07 642.33 229.33 C 647.17 221.59 657.27 217.11 656.00 208.00
C 662.46 205.68 668.59 196.68 675.00 195.00
C 680.40 189.60 686.70 185.55 693.00 182.00
C 697.22 178.64 697.81 176.93 704.00 176.00
C 712.74 174.69 714.87 179.04 717.00 187.00
C 725.32 201.51 727.44 216.55 730.99 233.01 C 734.54 249.47 737.00 270.41 737.00 288.00
C 737.49 293.04 737.48 299.03 737.00 304.00
C 737.00 319.09 735.67 332.77 733.00 347.00
C 732.82 347.96 733.11 349.03 733.00 350.00
C 732.47 354.77 737.22 360.15 739.77 365.23 C 742.32 370.31 744.55 377.33 746.00 383.00
C 747.79 387.85 749.98 392.29 751.00 398.00
C 752.56 406.72 754.67 415.11 756.00 424.00
C 758.04 430.81 758.57 432.59 760.00 442.00 C 761.43 451.41 775.64 459.73 784.00 462.00
C 788.69 462.32 793.66 462.26 798.00 461.00
C 797.61 462.57 798.94 465.22 797.00 466.00
C 796.76 466.30 797.00 467.00 797.00 467.00
C 799.62 470.58 792.82 477.92 789.25 481.25 C 785.67 484.58 776.48 487.58 772.00 489.00
C 777.61 491.81 782.40 497.06 789.00 498.00
C 783.61 506.43 776.32 515.04 767.25 521.25 C 758.17 527.45 748.66 532.45 739.70 538.70 C 730.74 544.94 719.20 547.85 709.31 553.31 C 699.41 558.76 687.48 562.08 676.31 565.31 C 665.13 568.53 650.37 571.43 641.00 576.00
C 644.61 581.67 644.34 593.35 646.00 600.00
C 646.32 601.28 647.72 603.36 648.00 605.00
C 653.93 616.97 653.96 638.10 653.00 652.00 C 652.04 665.90 656.00 686.22 648.00 698.00
C 648.00 698.50 648.01 699.50 648.00 700.00
C 647.76 709.22 644.40 717.49 652.22 721.78 C 660.05 726.06 661.79 734.10 664.00 741.00
C 664.83 743.60 665.39 746.29 666.00 749.00
C 669.03 757.52 669.28 770.22 664.00 778.00
C 663.93 778.49 664.08 779.51 664.00 780.00
C 662.37 789.38 653.34 795.08 651.00 804.00
C 644.46 804.68 641.61 809.85 636.00 813.00
C 639.97 821.06 648.25 829.09 647.67 838.67 C 647.08 848.25 627.54 850.00 621.00 846.00
C 621.40 866.77 582.34 867.65 584.00 846.00
C 582.77 837.42 582.84 827.29 583.00 818.00
C 581.33 818.00 579.67 818.00 578.00 818.00
C 578.47 822.89 577.40 827.45 577.00 832.00
C 577.05 837.56 578.61 844.32 577.00 850.00
C 573.48 862.43 554.59 866.31 544.75 857.25 C 534.92 848.18 541.18 827.81 535.00 817.00
C 531.51 818.01 527.79 818.00 524.00 818.00
C 511.56 818.00 500.00 821.05 488.00 822.00
C 485.91 822.40 482.76 823.76 480.00 823.00
C 480.00 824.00 480.00 825.00 480.00 826.00
C 482.20 832.72 487.84 845.80 480.25 851.25 C 472.66 856.70 462.18 856.35 453.31 852.69 C 444.43 849.04 446.29 837.39 443.01 829.99 C 439.73 822.60 441.95 808.94 438.00 802.00
C 430.38 797.13 414.71 804.10 404.00 802.00 C 393.29 799.90 381.06 800.64 370.99 798.01 C 360.92 795.37 351.02 792.17 341.77 788.23 C 332.53 784.29 324.92 779.59 316.75 774.25 C 308.58 768.90 302.00 763.89 294.75 757.25 C 287.51 750.61 282.36 744.10 276.08 736.92 C 269.80 729.73 264.95 722.03 260.08 713.92 C 255.21 705.81 251.14 696.16 247.00 688.00
C 246.45 686.92 246.30 686.45 246.00 685.00
C 239.60 668.83 232.09 651.50 232.00 632.00 C 231.92 612.50 229.49 588.77 239.00 572.00
C 255.05 584.65 269.48 597.41 289.25 603.75 C 309.01 610.10 330.39 616.71 348.00 626.00
C 365.20 640.13 383.88 650.12 395.92 670.08 C 407.96 690.04 417.05 712.12 424.00 734.00
C 427.17 726.59 427.16 717.39 428.00 709.00
C 428.92 700.08 432.94 691.04 435.92 682.92 C 438.90 674.80 443.75 667.37 445.00 660.00
C 446.73 658.12 448.04 658.90 450.00 658.00
C 450.49 656.77 450.59 655.30 451.00 654.00
C 454.34 643.53 464.12 632.38 471.00 624.00
C 474.71 618.36 477.90 612.29 482.00 607.00
C 485.04 600.50 487.22 595.43 492.00 590.00
C 493.54 587.16 495.39 584.02 497.00 581.00
C 497.54 579.23 497.48 574.35 500.00 572.00
C 477.33 567.43 456.86 562.31 437.00 551.00
C 429.93 548.09 422.72 543.17 416.26 539.74 C 409.79 536.31 400.43 531.96 394.92 528.08 C 389.42 524.19 380.18 518.73 376.25 514.75 C 372.32 510.77 359.46 502.60 365.00 497.00
C 367.36 494.61 372.16 494.60 374.00 494.00
C 375.65 492.84 376.94 491.16 379.22 491.22 C 381.51 491.29 382.11 487.57 383.00 487.00
C 375.77 486.62 368.89 484.21 363.00 480.00
C 356.70 475.50 351.79 468.02 353.00 460.00
C 354.81 459.86 357.08 460.44 358.00 462.00
C 367.67 462.79 375.85 460.26 384.00 456.00
C 393.30 449.75 392.05 439.77 393.00 430.00
C 394.00 419.65 395.81 408.86 400.00 400.00
C 402.24 387.11 407.83 372.55 414.00 361.00
C 414.84 358.34 415.51 352.40 419.00 350.00
C 413.70 340.74 416.32 327.65 414.07 316.93 C 411.83 306.21 414.67 290.70 414.78 279.78 C 414.89 268.86 416.54 255.57 418.00 245.00 C 419.46 234.43 422.03 223.83 424.93 213.93 C 427.82 204.02 429.87 194.93 435.00 186.00
C 436.12 183.29 436.43 180.57 438.00 178.00
C 444.63 167.18 458.34 178.77 465.70 184.30 C 473.05 189.83 482.88 198.63 487.00 205.00 Z"/>
</g>
<g fill="None" fill-opacity="0.0" stroke="#ADADAD" stroke-opacity="1.00" stroke-width="0.3"><path d="
M 343.00 290.00 
C 382.01 267.22 385.51 208.62 349.75 181.25 C 313.99 153.88 259.30 169.17 245.78 213.78 C 232.25 258.39 270.40 308.07 319.00 298.00
C 323.30 305.25 325.96 312.63 332.25 318.75 C 338.54 324.88 342.24 330.63 351.31 333.69 C 360.37 336.76 364.65 342.50 377.00 341.00 C 389.35 339.49 381.58 329.34 372.25 327.75 C 362.91 326.16 360.42 317.11 353.92 312.08 C 347.42 307.06 346.22 296.72 343.00 290.00 Z"/>
</g>
<g fill="None" fill-opacity="0.0" stroke="#FEEED8" stroke-opacity="1.00" stroke-width="0.3"><path d="
M 438.00 178.00 
C 441.57 173.43 445.34 175.47 449.00 177.00
C 463.52 180.88 476.17 194.17 487.00 205.00
C 482.88 198.63 473.05 189.83 465.70 184.30 C 458.34 178.77 444.63 167.18 438.00 178.00 Z"/>
</g>
<g fill="None" fill-opacity="0.0" stroke="#E9B492" stroke-opacity="1.00" stroke-width="0.3"><path d="
M 438.00 178.00 
C 436.43 180.57 436.12 183.29 435.00 186.00
C 435.12 185.78 436.00 186.00 436.00 186.00
C 439.40 178.95 439.61 174.49 449.00 177.00
C 445.34 175.47 441.57 173.43 438.00 178.00 Z"/>
</g>
<g fill="None" fill-opacity="0.0" stroke="#FC7C35" stroke-opacity="1.00" stroke-width="0.3"><path d="
M 704.00 176.00 
C 700.44 177.20 696.49 180.03 693.00 182.00
C 686.70 185.55 680.40 189.60 675.00 195.00
C 670.25 199.75 664.23 204.95 660.00 210.00
C 649.71 224.41 638.44 238.18 631.00 254.00
C 630.65 255.35 630.35 256.65 630.00 258.00
C 630.17 259.15 633.81 268.05 637.75 271.25 C 641.70 274.45 647.18 277.13 651.70 280.30 C 656.21 283.48 663.51 284.38 668.00 288.00
C 653.87 287.26 639.33 277.53 624.00 277.00
C 617.78 276.31 612.07 275.22 605.99 274.01 C 599.92 272.80 593.00 273.17 586.93 272.07 C 580.86 270.97 571.01 272.55 565.33 272.33 C 559.65 272.11 550.75 274.89 546.00 274.00 C 541.25 273.11 529.28 279.62 527.00 275.00
C 526.72 274.42 527.45 272.42 527.00 272.00
C 527.00 272.00 526.06 272.16 526.00 272.00
C 526.29 273.62 525.78 275.37 526.00 277.00
C 515.90 276.60 507.58 282.41 498.00 284.00
C 506.83 276.78 523.34 272.28 520.00 257.00
C 522.07 257.88 521.21 261.04 523.00 262.00
C 520.74 253.96 516.37 246.21 512.00 239.00
C 504.99 227.44 497.01 215.01 487.00 205.00
C 476.17 194.17 463.52 180.88 449.00 177.00
C 439.61 174.49 439.40 178.95 436.00 186.00
C 444.29 186.62 446.89 196.56 450.92 203.08 C 454.96 209.59 458.64 217.47 461.77 225.23 C 464.90 232.99 466.95 241.74 469.78 250.22 C 472.60 258.70 472.36 268.95 474.98 278.02 C 477.59 287.10 475.85 297.02 466.75 299.75 C 457.65 302.48 455.20 309.71 447.75 313.75 C 440.31 317.79 438.10 326.76 432.23 331.23 C 426.36 335.70 424.86 348.22 419.00 351.00
C 418.25 354.40 415.66 357.89 414.00 361.00
C 407.83 372.55 402.24 387.11 400.00 400.00
C 399.92 400.49 400.01 401.50 400.00 402.00
C 399.80 409.85 396.52 417.86 395.00 425.00
C 395.00 426.00 395.03 427.00 395.00 428.00
C 394.66 438.09 393.91 450.82 384.00 456.00
C 375.85 460.26 367.67 462.79 358.00 462.00
C 356.38 461.87 355.08 460.30 354.00 462.00
C 362.27 477.18 382.10 480.28 397.00 479.00
C 391.16 479.95 388.67 488.13 383.00 487.00
C 382.11 487.57 381.51 491.29 379.22 491.22 C 376.94 491.16 375.65 492.84 374.00 494.00
C 372.67 494.93 370.73 496.32 370.00 498.00
C 377.34 498.90 383.05 494.15 390.00 494.00
C 409.83 487.13 426.95 471.50 447.00 466.00
C 450.41 464.16 456.06 462.61 459.23 460.23 C 462.40 457.85 472.95 460.78 474.00 459.00
C 473.23 456.94 473.15 454.27 473.00 452.00
C 472.28 447.96 472.44 443.94 473.00 440.00
C 473.35 430.84 477.32 416.45 489.08 415.08 C 500.83 413.71 506.85 426.36 508.00 437.00 C 509.15 447.64 508.38 459.29 499.00 467.00
C 497.19 468.49 496.61 469.58 494.00 470.00
C 496.33 474.62 498.96 484.57 497.00 489.00
C 503.18 484.40 511.37 477.27 514.31 470.30 C 517.24 463.34 524.28 453.62 528.75 448.75 C 533.22 443.89 545.19 430.77 551.00 436.00
C 550.02 426.63 555.92 422.70 564.00 421.00
C 569.99 419.00 575.83 418.90 582.00 420.00
C 591.46 420.64 600.92 423.86 600.00 435.00
C 622.95 437.88 630.21 464.04 643.00 479.00
C 646.22 482.22 650.10 486.19 654.00 488.00
C 653.80 481.66 653.34 474.53 658.00 470.00
C 645.78 468.09 642.15 453.77 643.00 443.00 C 643.85 432.23 645.89 419.95 657.70 415.70 C 669.50 411.44 676.44 426.96 678.00 436.00
C 679.44 441.03 679.93 444.82 679.00 450.00
C 678.78 453.26 678.14 455.99 677.00 459.00
C 683.07 454.56 699.46 463.61 705.00 466.00
C 728.76 476.25 748.51 491.35 774.00 497.00
C 776.33 497.52 780.18 499.29 782.00 497.00
C 777.65 493.33 770.27 492.33 768.00 487.00
C 764.66 484.51 759.26 482.77 756.00 480.00
C 760.99 479.37 767.64 477.83 773.07 478.07 C 778.50 478.31 782.81 473.85 787.23 472.23 C 791.65 470.61 795.48 464.09 797.00 466.00
C 798.94 465.22 797.61 462.57 798.00 461.00
C 793.66 462.26 788.69 462.32 784.00 462.00
C 776.19 461.47 767.14 457.37 762.25 450.75 C 757.36 444.13 757.24 432.31 756.00 424.00
C 754.67 415.11 752.56 406.72 751.00 398.00
C 749.51 393.28 747.31 388.12 746.00 383.00
C 744.55 377.33 742.32 370.31 739.77 365.23 C 737.22 360.15 732.47 354.77 733.00 350.00
C 731.95 348.23 726.92 342.67 724.70 338.30 C 722.48 333.93 718.11 328.94 715.00 325.00
C 711.38 321.09 706.86 316.57 703.00 313.00
C 695.74 307.27 693.71 303.28 684.31 299.70 C 674.90 296.11 674.29 287.38 676.93 277.93 C 679.56 268.48 678.93 258.32 681.99 249.99 C 685.06 241.66 687.27 232.22 689.98 224.98 C 692.68 217.73 697.95 208.18 700.77 202.77 C 703.59 197.36 710.73 182.77 716.00 187.00
C 716.32 186.76 717.00 187.00 717.00 187.00
C 714.87 179.04 712.74 174.69 704.00 176.00
M 495.00 369.00 
C 503.40 371.55 502.69 385.65 494.92 387.92 C 487.14 390.19 479.63 398.00 471.00 396.00 C 462.37 394.00 464.10 381.04 470.75 376.75 C 477.40 372.46 485.59 366.15 495.00 369.00
M 668.00 369.00 
C 674.27 370.30 692.60 382.76 685.07 391.07 C 677.54 399.38 664.42 394.79 654.93 388.07 C 645.44 381.35 653.13 365.92 668.00 369.00 Z"/>
</g>
<g fill="None" fill-opacity="0.0" stroke="#F6D1AC" stroke-opacity="1.00" stroke-width="0.3"><path d="
M 693.00 182.00 
C 696.49 180.03 700.44 177.20 704.00 176.00
C 697.81 176.93 697.22 178.64 693.00 182.00 Z"/>
</g>
<g fill="None" fill-opacity="0.0" stroke="#5E211D" stroke-opacity="1.00" stroke-width="0.3"><path d="
M 419.00 350.00 
C 419.22 350.38 419.00 351.00 419.00 351.00
C 424.86 348.22 426.36 335.70 432.23 331.23 C 438.10 326.76 440.31 317.79 447.75 313.75 C 455.20 309.71 457.65 302.48 466.75 299.75 C 475.85 297.02 477.59 287.10 474.98 278.02 C 472.36 268.95 472.60 258.70 469.78 250.22 C 466.95 241.74 464.90 232.99 461.77 225.23 C 458.64 217.47 454.96 209.59 450.92 203.08 C 446.89 196.56 444.29 186.62 436.00 186.00
C 436.00 186.00 435.12 185.78 435.00 186.00
C 429.87 194.93 427.82 204.02 424.93 213.93 C 422.03 223.83 419.46 234.43 418.00 245.00 C 416.54 255.57 414.89 268.86 414.78 279.78 C 414.67 290.70 411.83 306.21 414.07 316.93 C 416.32 327.65 413.70 340.74 419.00 350.00 Z"/>
</g>
<g fill="None" fill-opacity="0.0" stroke="#72240D" stroke-opacity="1.00" stroke-width="0.3"><path d="
M 703.00 313.00 
C 707.34 316.43 711.61 320.71 715.00 325.00
C 718.11 328.94 722.48 333.93 724.70 338.30 C 726.92 342.67 731.95 348.23 733.00 350.00
C 733.11 349.03 732.82 347.96 733.00 347.00
C 729.01 337.54 718.96 330.10 716.00 321.00
C 712.80 320.09 708.48 314.82 702.92 311.08 C 697.36 307.34 695.20 300.57 687.25 298.75 C 679.30 296.94 675.97 289.21 677.99 281.99 C 680.01 274.77 681.06 267.00 682.78 260.78 C 684.50 254.56 684.49 249.40 686.98 241.98 C 689.46 234.55 690.99 227.96 694.30 221.30 C 697.61 214.65 699.85 208.56 703.32 202.32 C 706.79 196.08 709.66 190.65 716.00 187.00
C 710.73 182.77 703.59 197.36 700.77 202.77 C 697.95 208.18 692.68 217.73 689.98 224.98 C 687.27 232.22 685.06 241.66 681.99 249.99 C 678.93 258.32 679.56 268.48 676.93 277.93 C 674.29 287.38 674.90 296.11 684.31 299.70 C 693.71 303.28 695.74 307.27 703.00 313.00 Z"/>
</g>
<g fill="None" fill-opacity="0.0" stroke="#5C211E" stroke-opacity="1.00" stroke-width="0.3"><path d="
M 733.00 347.00 
C 735.67 332.77 737.00 319.09 737.00 304.00
C 737.00 298.67 737.00 293.33 737.00 288.00
C 737.00 270.41 734.54 249.47 730.99 233.01 C 727.44 216.55 725.32 201.51 717.00 187.00
C 717.00 187.00 716.32 186.76 716.00 187.00
C 709.66 190.65 706.79 196.08 703.32 202.32 C 699.85 208.56 697.61 214.65 694.30 221.30 C 690.99 227.96 689.46 234.55 686.98 241.98 C 684.49 249.40 684.50 254.56 682.78 260.78 C 681.06 267.00 680.01 274.77 677.99 281.99 C 675.97 289.21 679.30 296.94 687.25 298.75 C 695.20 300.57 697.36 307.34 702.92 311.08 C 708.48 314.82 712.80 320.09 716.00 321.00
C 718.96 330.10 729.01 337.54 733.00 347.00 Z"/>
</g>
<g fill="None" fill-opacity="0.0" stroke="#FDECD5" stroke-opacity="1.00" stroke-width="0.3"><path d="
M 631.00 254.00 
C 638.44 238.18 649.71 224.41 660.00 210.00
C 664.04 204.34 670.06 199.70 675.00 195.00
C 668.59 196.68 662.46 205.68 656.00 208.00
C 657.27 217.11 647.17 221.59 642.33 229.33 C 637.48 237.07 633.31 245.08 631.00 254.00 Z"/>
</g>
<g fill="None" fill-opacity="0.0" stroke="#F2BD98" stroke-opacity="1.00" stroke-width="0.3"><path d="
M 660.00 210.00 
C 664.23 204.95 670.25 199.75 675.00 195.00
C 670.06 199.70 664.04 204.34 660.00 210.00 Z"/>
</g>
<g fill="None" fill-opacity="0.0" stroke="#FEE7D0" stroke-opacity="1.00" stroke-width="0.3"><path d="
M 523.00 262.00 
C 521.78 253.25 518.28 245.80 512.00 239.00
C 516.37 246.21 520.74 253.96 523.00 262.00 Z"/>
</g>
<g fill="None" fill-opacity="0.0" stroke="#CE4F25" stroke-opacity="1.00" stroke-width="0.3"><path d="
M 526.00 272.00 
C 524.77 268.70 524.25 265.27 523.00 262.00
C 521.21 261.04 522.07 257.88 520.00 257.00
C 523.34 272.28 506.83 276.78 498.00 284.00
C 507.58 282.41 515.90 276.60 526.00 277.00
C 525.78 275.37 526.29 273.62 526.00 272.00 Z"/>
</g>
<g fill="None" fill-opacity="0.0" stroke="#D24F23" stroke-opacity="1.00" stroke-width="0.3"><path d="
M 630.00 258.00 
C 628.85 262.39 627.23 266.66 626.00 271.00
C 625.63 272.32 625.59 276.22 624.00 277.00
C 639.33 277.53 653.87 287.26 668.00 288.00
C 663.51 284.38 656.21 283.48 651.70 280.30 C 647.18 277.13 641.70 274.45 637.75 271.25 C 633.81 268.05 630.17 259.15 630.00 258.00 Z"/>
</g>
<g fill="None" fill-opacity="0.0" stroke="#FEF2D7" stroke-opacity="1.00" stroke-width="0.3"><path d="
M 527.00 272.00 
C 527.45 272.42 526.72 274.42 527.00 275.00
C 551.00 270.54 575.43 272.00 600.00 272.00
C 591.46 265.69 572.43 272.04 562.07 270.07 C 551.71 268.11 537.07 277.76 527.00 272.00 Z"/>
</g>
<g fill="None" fill-opacity="0.0" stroke="#EDAF83" stroke-opacity="1.00" stroke-width="0.3"><path d="
M 527.00 275.00 
C 529.28 279.62 541.25 273.11 546.00 274.00 C 550.75 274.89 559.65 272.11 565.33 272.33 C 571.01 272.55 580.86 270.97 586.93 272.07 C 593.00 273.17 599.92 272.80 605.99 274.01 C 612.07 275.22 617.78 276.31 624.00 277.00
C 625.59 276.22 625.63 272.32 626.00 271.00
C 624.25 271.39 623.70 273.43 624.00 275.00
C 619.98 274.15 616.18 274.33 612.00 274.00
C 609.04 273.77 603.14 273.58 601.00 272.00
C 601.00 272.00 600.50 272.00 600.00 272.00
C 575.43 272.00 551.00 270.54 527.00 275.00 Z"/>
</g>
<g fill="None" fill-opacity="0.0" stroke="#FDDCBD" stroke-opacity="1.00" stroke-width="0.3"><path d="
M 612.00 274.00 
C 608.59 273.34 605.41 272.00 601.00 272.00
C 603.14 273.58 609.04 273.77 612.00 274.00 Z"/>
</g>
<g fill="None" fill-opacity="0.0" stroke="#AF9290" stroke-opacity="1.00" stroke-width="0.3"><path d="
M 737.00 304.00 
C 737.48 299.03 737.49 293.04 737.00 288.00
C 737.00 293.33 737.00 298.67 737.00 304.00 Z"/>
</g>
<g fill="None" fill-opacity="0.0" stroke="#A5491E" stroke-opacity="1.00" stroke-width="0.3"><path d="
M 715.00 325.00 
C 711.61 320.71 707.34 316.43 703.00 313.00
C 706.86 316.57 711.38 321.09 715.00 325.00 Z"/>
</g>
<g fill="None" fill-opacity="0.0" stroke="#FCDEBF" stroke-opacity="1.00" stroke-width="0.3"><path d="
M 414.00 361.00 
C 415.66 357.89 418.25 354.40 419.00 351.00
C 419.00 351.00 419.22 350.38 419.00 350.00
C 415.51 352.40 414.84 358.34 414.00 361.00 Z"/>
</g>
<g fill="None" fill-opacity="0.0" stroke="#FEECCA" stroke-opacity="1.00" stroke-width="0.3"><path d="
M 495.00 369.00 
C 485.59 366.15 477.40 372.46 470.75 376.75 C 464.10 381.04 462.37 394.00 471.00 396.00 C 479.63 398.00 487.14 390.19 494.92 387.92 C 502.69 385.65 503.40 371.55 495.00 369.00 Z"/>
</g>
<g fill="None" fill-opacity="0.0" stroke="#FEECC9" stroke-opacity="1.00" stroke-width="0.3"><path d="
M 668.00 369.00 
C 653.13 365.92 645.44 381.35 654.93 388.07 C 664.42 394.79 677.54 399.38 685.07 391.07 C 692.60 382.76 674.27 370.30 668.00 369.00 Z"/>
</g>
<g fill="None" fill-opacity="0.0" stroke="#F2BA94" stroke-opacity="1.00" stroke-width="0.3"><path d="
M 751.00 398.00 
C 749.98 392.29 747.79 387.85 746.00 383.00
C 747.31 388.12 749.51 393.28 751.00 398.00 Z"/>
</g>
<g fill="None" fill-opacity="0.0" stroke="#FEECD6" stroke-opacity="1.00" stroke-width="0.3"><path d="
M 393.00 430.00 
C 393.14 429.60 394.91 428.32 395.00 428.00
C 395.03 427.00 395.00 426.00 395.00 425.00
C 394.97 417.87 397.11 408.05 400.00 402.00
C 400.01 401.50 399.92 400.49 400.00 400.00
C 395.81 408.86 394.00 419.65 393.00 430.00 Z"/>
</g>
<g fill="None" fill-opacity="0.0" stroke="#E7A57A" stroke-opacity="1.00" stroke-width="0.3"><path d="
M 395.00 425.00 
C 396.52 417.86 399.80 409.85 400.00 402.00
C 397.11 408.05 394.97 417.87 395.00 425.00 Z"/>
</g>
<g fill="None" fill-opacity="0.0" stroke="#612319" stroke-opacity="1.00" stroke-width="0.3"><path d="
M 473.00 440.00 
C 472.85 443.93 472.73 448.08 473.00 452.00
C 473.15 454.27 473.23 456.94 474.00 459.00
C 476.13 464.70 481.48 467.78 487.00 469.00
C 491.27 469.44 495.42 469.19 499.00 467.00
C 508.38 459.29 509.15 447.64 508.00 437.00 C 506.85 426.36 500.83 413.71 489.08 415.08 C 477.32 416.45 473.35 430.84 473.00 440.00
M 493.00 424.00 
C 502.23 427.76 498.47 453.04 485.92 450.07 C 473.38 447.10 478.55 418.12 493.00 424.00
M 484.00 455.00 
C 486.92 455.81 485.66 462.01 482.30 460.64 C 478.94 459.28 479.75 453.82 484.00 455.00 Z"/>
</g>
<g fill="None" fill-opacity="0.0" stroke="#62231A" stroke-opacity="1.00" stroke-width="0.3"><path d="
M 658.00 470.00 
C 666.60 471.34 674.08 466.71 677.00 459.00
C 678.14 455.99 678.78 453.26 679.00 450.00
C 679.33 445.18 678.79 440.57 678.00 436.00
C 676.44 426.96 669.50 411.44 657.70 415.70 C 645.89 419.95 643.85 432.23 643.00 443.00 C 642.15 453.77 645.78 468.09 658.00 470.00
M 661.00 424.00 
C 670.84 427.69 664.49 455.32 652.99 450.01 C 641.50 444.69 648.94 419.48 661.00 424.00
M 653.00 455.00 
C 655.40 455.43 655.81 461.49 652.30 460.64 C 648.80 459.79 649.54 454.39 653.00 455.00 Z"/>
</g>
<g fill="None" fill-opacity="0.0" stroke="#B14A26" stroke-opacity="1.00" stroke-width="0.3"><path d="
M 564.00 421.00 
C 569.62 419.82 576.04 419.59 582.00 420.00
C 575.83 418.90 569.99 419.00 564.00 421.00 Z"/>
</g>
<g fill="None" fill-opacity="0.0" stroke="#5C211B" stroke-opacity="1.00" stroke-width="0.3"><path d="
M 564.00 421.00 
C 555.92 422.70 550.02 426.63 551.00 436.00
C 552.18 447.31 561.79 457.96 573.00 460.00
C 573.00 467.67 573.00 475.33 573.00 483.00
C 569.59 484.08 554.29 475.37 556.34 481.68 C 558.38 487.99 569.85 489.09 575.00 489.00 C 580.15 488.91 591.20 488.48 594.25 482.25 C 597.30 476.01 582.63 482.43 579.00 483.00
C 577.25 475.71 578.26 467.67 578.00 460.00
C 590.12 458.07 598.71 446.71 600.00 435.00
C 600.92 423.86 591.46 420.64 582.00 420.00
C 576.04 419.59 569.62 419.82 564.00 421.00 Z"/>
</g>
<g fill="None" fill-opacity="0.0" stroke="#FAE8CE" stroke-opacity="1.00" stroke-width="0.3"><path d="
M 493.00 424.00 
C 478.55 418.12 473.38 447.10 485.92 450.07 C 498.47 453.04 502.23 427.76 493.00 424.00 Z"/>
</g>
<g fill="None" fill-opacity="0.0" stroke="#FAE9CF" stroke-opacity="1.00" stroke-width="0.3"><path d="
M 661.00 424.00 
C 648.94 419.48 641.50 444.69 652.99 450.01 C 664.49 455.32 670.84 427.69 661.00 424.00 Z"/>
</g>
<g fill="None" fill-opacity="0.0" stroke="#FBE1C3" stroke-opacity="1.00" stroke-width="0.3"><path d="
M 784.00 462.00 
C 775.64 459.73 761.43 451.41 760.00 442.00 C 758.57 432.59 758.04 430.81 756.00 424.00
C 757.24 432.31 757.36 444.13 762.25 450.75 C 767.14 457.37 776.19 461.47 784.00 462.00 Z"/>
</g>
<g fill="None" fill-opacity="0.0" stroke="#F0B58D" stroke-opacity="1.00" stroke-width="0.3"><path d="
M 393.00 430.00 
C 392.05 439.77 393.30 449.75 384.00 456.00
C 393.91 450.82 394.66 438.09 395.00 428.00
C 394.91 428.32 393.14 429.60 393.00 430.00 Z"/>
</g>
<g fill="None" fill-opacity="0.0" stroke="#FEEED0" stroke-opacity="1.00" stroke-width="0.3"><path d="
M 497.00 489.00 
C 482.63 499.69 465.35 502.44 453.00 486.00
C 450.99 483.32 450.02 480.16 449.02 476.98 C 448.03 473.79 451.61 467.75 449.00 466.00
C 448.57 466.18 447.46 465.87 447.00 466.00
C 426.95 471.50 409.83 487.13 390.00 494.00
C 388.33 494.58 386.14 495.88 384.00 496.00
C 390.40 506.65 400.82 513.42 412.75 519.25 C 424.68 525.08 436.17 531.13 447.90 537.10 C 459.62 543.07 473.80 545.50 487.22 549.78 C 500.64 554.05 514.91 557.87 529.67 560.33 C 544.43 562.79 563.04 563.70 579.00 564.00 C 594.96 564.30 613.35 563.69 628.22 561.22 C 643.09 558.76 658.53 557.70 671.69 551.70 C 684.86 545.69 697.53 544.12 710.22 538.22 C 722.92 532.33 733.80 525.73 745.70 520.70 C 757.59 515.67 767.06 505.52 778.00 500.00
C 777.29 498.37 774.62 498.71 774.00 497.00
C 748.51 491.35 728.76 476.25 705.00 466.00
C 703.35 465.82 701.65 466.14 700.00 466.00
C 708.11 480.70 694.23 496.18 679.78 497.78 C 665.33 499.38 651.65 490.35 643.00 479.00
C 630.21 464.04 622.95 437.88 600.00 435.00
C 598.71 446.71 590.12 458.07 578.00 460.00
C 578.26 467.67 577.25 475.71 579.00 483.00
C 582.63 482.43 597.30 476.01 594.25 482.25 C 591.20 488.48 580.15 488.91 575.00 489.00 C 569.85 489.09 558.38 487.99 556.34 481.68 C 554.29 475.37 569.59 484.08 573.00 483.00
C 573.00 475.33 573.00 467.67 573.00 460.00
C 561.79 457.96 552.18 447.31 551.00 436.00
C 545.19 430.77 533.22 443.89 528.75 448.75 C 524.28 453.62 517.24 463.34 514.31 470.30 C 511.37 477.27 503.18 484.40 497.00 489.00 Z"/>
</g>
<g fill="None" fill-opacity="0.0" stroke="#AB4824" stroke-opacity="1.00" stroke-width="0.3"><path d="
M 679.00 450.00 
C 679.93 444.82 679.44 441.03 678.00 436.00
C 678.79 440.57 679.33 445.18 679.00 450.00 Z"/>
</g>
<g fill="None" fill-opacity="0.0" stroke="#A6491F" stroke-opacity="1.00" stroke-width="0.3"><path d="
M 473.00 452.00 
C 472.73 448.08 472.85 443.93 473.00 440.00
C 472.44 443.94 472.28 447.96 473.00 452.00 Z"/>
</g>
<g fill="None" fill-opacity="0.0" stroke="#E1C4B1" stroke-opacity="1.00" stroke-width="0.3"><path d="
M 484.00 455.00 
C 479.75 453.82 478.94 459.28 482.30 460.64 C 485.66 462.01 486.92 455.81 484.00 455.00 Z"/>
</g>
<g fill="None" fill-opacity="0.0" stroke="#E4BEAD" stroke-opacity="1.00" stroke-width="0.3"><path d="
M 653.00 455.00 
C 649.54 454.39 648.80 459.79 652.30 460.64 C 655.81 461.49 655.40 455.43 653.00 455.00 Z"/>
</g>
<g fill="None" fill-opacity="0.0" stroke="#FCAE77" stroke-opacity="1.00" stroke-width="0.3"><path d="
M 677.00 459.00 
C 674.08 466.71 666.60 471.34 658.00 470.00
C 653.34 474.53 653.80 481.66 654.00 488.00
C 650.10 486.19 646.22 482.22 643.00 479.00
C 651.65 490.35 665.33 499.38 679.78 497.78 C 694.23 496.18 708.11 480.70 700.00 466.00
C 701.65 466.14 703.35 465.82 705.00 466.00
C 699.46 463.61 683.07 454.56 677.00 459.00 Z"/>
</g>
<g fill="None" fill-opacity="0.0" stroke="#FCAE77" stroke-opacity="1.00" stroke-width="0.3"><path d="
M 447.00 466.00 
C 447.46 465.87 448.57 466.18 449.00 466.00
C 449.72 465.70 450.68 464.34 452.00 465.00
C 449.08 471.81 449.88 479.38 453.00 486.00
C 465.35 502.44 482.63 499.69 497.00 489.00
C 498.96 484.57 496.33 474.62 494.00 470.00
C 491.31 470.43 488.96 469.43 487.00 469.00
C 481.48 467.78 476.13 464.70 474.00 459.00
C 472.95 460.78 462.40 457.85 459.23 460.23 C 456.06 462.61 450.41 464.16 447.00 466.00 Z"/>
</g>
<g fill="None" fill-opacity="0.0" stroke="#F6CFC2" stroke-opacity="1.00" stroke-width="0.3"><path d="
M 363.00 480.00 
C 360.31 477.75 351.74 465.56 354.00 462.00
C 355.08 460.30 356.38 461.87 358.00 462.00
C 357.08 460.44 354.81 459.86 353.00 460.00
C 351.79 468.02 356.70 475.50 363.00 480.00 Z"/>
</g>
<g fill="None" fill-opacity="0.0" stroke="#CB4F2B" stroke-opacity="1.00" stroke-width="0.3"><path d="
M 363.00 480.00 
C 368.89 484.21 375.77 486.62 383.00 487.00
C 388.67 488.13 391.16 479.95 397.00 479.00
C 382.10 480.28 362.27 477.18 354.00 462.00
C 351.74 465.56 360.31 477.75 363.00 480.00 Z"/>
</g>
<g fill="None" fill-opacity="0.0" stroke="#CA4F2B" stroke-opacity="1.00" stroke-width="0.3"><path d="
M 768.00 487.00 
C 780.15 488.53 792.80 477.68 797.00 467.00
C 797.00 467.00 796.76 466.30 797.00 466.00
C 795.48 464.09 791.65 470.61 787.23 472.23 C 782.81 473.85 778.50 478.31 773.07 478.07 C 767.64 477.83 760.99 479.37 756.00 480.00
C 759.26 482.77 764.66 484.51 768.00 487.00 Z"/>
</g>
<g fill="None" fill-opacity="0.0" stroke="#F8CEA5" stroke-opacity="1.00" stroke-width="0.3"><path d="
M 449.00 466.00 
C 451.61 467.75 448.03 473.79 449.02 476.98 C 450.02 480.16 450.99 483.32 453.00 486.00
C 449.88 479.38 449.08 471.81 452.00 465.00
C 450.68 464.34 449.72 465.70 449.00 466.00 Z"/>
</g>
<g fill="None" fill-opacity="0.0" stroke="#AF5831" stroke-opacity="1.00" stroke-width="0.3"><path d="
M 487.00 469.00 
C 488.96 469.43 491.31 470.43 494.00 470.00
C 496.61 469.58 497.19 468.49 499.00 467.00
C 495.42 469.19 491.27 469.44 487.00 469.00 Z"/>
</g>
<g fill="None" fill-opacity="0.0" stroke="#F0C7A4" stroke-opacity="1.00" stroke-width="0.3"><path d="
M 768.00 487.00 
C 770.27 492.33 777.65 493.33 782.00 497.00
C 780.18 499.29 776.33 497.52 774.00 497.00
C 774.62 498.71 777.29 498.37 778.00 500.00
C 767.06 505.52 757.59 515.67 745.70 520.70 C 733.80 525.73 722.92 532.33 710.22 538.22 C 697.53 544.12 684.86 545.69 671.69 551.70 C 658.53 557.70 643.09 558.76 628.22 561.22 C 613.35 563.69 594.96 564.30 579.00 564.00 C 563.04 563.70 544.43 562.79 529.67 560.33 C 514.91 557.87 500.64 554.05 487.22 549.78 C 473.80 545.50 459.62 543.07 447.90 537.10 C 436.17 531.13 424.68 525.08 412.75 519.25 C 400.82 513.42 390.40 506.65 384.00 496.00
C 386.14 495.88 388.33 494.58 390.00 494.00
C 383.05 494.15 377.34 498.90 370.00 498.00
C 370.73 496.32 372.67 494.93 374.00 494.00
C 372.08 496.29 367.04 495.60 365.00 497.00
C 359.46 502.60 372.32 510.77 376.25 514.75 C 380.18 518.73 389.42 524.19 394.92 528.08 C 400.43 531.96 409.79 536.31 416.26 539.74 C 422.72 543.17 429.93 548.09 437.00 551.00
C 457.77 559.55 480.40 567.42 501.00 573.00
C 512.08 576.00 525.86 576.26 538.00 578.00
C 536.86 586.91 537.99 594.89 538.00 604.00
C 538.10 605.73 538.72 606.85 539.00 608.00
C 539.18 606.69 538.86 605.31 539.00 604.00
C 567.46 604.51 597.82 606.99 626.00 604.00
C 626.03 606.74 624.37 609.08 625.00 612.00
C 625.94 607.96 627.60 602.10 628.00 598.00
C 628.70 590.73 627.47 583.28 628.00 576.00
C 632.47 576.81 638.03 571.80 641.00 576.00
C 650.37 571.43 665.13 568.53 676.31 565.31 C 687.48 562.08 699.41 558.76 709.31 553.31 C 719.20 547.85 730.74 544.94 739.70 538.70 C 748.66 532.45 758.17 527.45 767.25 521.25 C 776.32 515.04 783.61 506.43 789.00 498.00
C 782.40 497.06 777.61 491.81 772.00 489.00
C 776.48 487.58 785.67 484.58 789.25 481.25 C 792.82 477.92 799.62 470.58 797.00 467.00
C 792.80 477.68 780.15 488.53 768.00 487.00 Z"/>
</g>
<g fill="None" fill-opacity="0.0" stroke="#FFF4D8" stroke-opacity="1.00" stroke-width="0.3"><path d="
M 365.00 497.00 
C 367.04 495.60 372.08 496.29 374.00 494.00
C 372.16 494.60 367.36 494.61 365.00 497.00 Z"/>
</g>
<g fill="None" fill-opacity="0.0" stroke="#F6E4D2" stroke-opacity="1.00" stroke-width="0.3"><path d="
M 497.00 581.00 
C 498.01 579.10 499.35 574.22 501.00 573.00
C 480.40 567.42 457.77 559.55 437.00 551.00
C 456.86 562.31 477.33 567.43 500.00 572.00
C 497.48 574.35 497.54 579.23 497.00 581.00 Z"/>
</g>
<g fill="None" fill-opacity="0.0" stroke="#FEEED0" stroke-opacity="1.00" stroke-width="0.3"><path d="
M 246.00 685.00 
C 241.12 661.36 227.99 637.36 234.00 612.00
C 238.17 625.91 239.23 642.91 246.31 655.69 C 253.38 668.48 257.41 684.62 272.00 689.00
C 276.99 689.86 288.41 696.56 291.92 690.92 C 295.42 685.27 291.95 673.47 292.07 666.93 C 292.20 660.38 289.60 652.63 286.00 647.00
C 299.58 647.88 311.98 652.91 325.00 656.00
C 325.90 649.26 321.91 643.93 320.00 638.00
C 330.65 641.28 340.60 647.14 350.00 653.00
C 350.69 643.84 346.94 635.82 343.00 628.00
C 342.12 626.49 340.52 624.92 340.00 623.00
C 342.11 623.40 344.66 624.37 346.00 626.00
C 346.50 626.01 347.55 625.85 348.00 626.00
C 330.39 616.71 309.01 610.10 289.25 603.75 C 269.48 597.41 255.05 584.65 239.00 572.00
C 229.49 588.77 231.92 612.50 232.00 632.00 C 232.09 651.50 239.60 668.83 246.00 685.00 Z"/>
</g>
<g fill="None" fill-opacity="0.0" stroke="#D04D28" stroke-opacity="1.00" stroke-width="0.3"><path d="
M 501.00 573.00 
C 499.35 574.22 498.01 579.10 497.00 581.00
C 495.39 584.02 493.54 587.16 492.00 590.00
C 491.24 591.41 490.82 593.62 490.00 595.00
C 489.59 599.46 504.39 599.51 510.22 601.78 C 516.05 604.05 531.11 602.90 538.00 604.00
C 537.99 594.89 536.86 586.91 538.00 578.00
C 525.86 576.26 512.08 576.00 501.00 573.00 Z"/>
</g>
<g fill="None" fill-opacity="0.0" stroke="#CC512D" stroke-opacity="1.00" stroke-width="0.3"><path d="
M 628.00 598.00 
C 628.12 599.99 627.91 602.00 628.00 604.00
C 633.98 603.81 642.40 603.57 646.00 600.00
C 644.34 593.35 644.61 581.67 641.00 576.00
C 638.03 571.80 632.47 576.81 628.00 576.00
C 627.47 583.28 628.70 590.73 628.00 598.00 Z"/>
</g>
<g fill="None" fill-opacity="0.0" stroke="#FCDCC4" stroke-opacity="1.00" stroke-width="0.3"><path d="
M 482.00 607.00 
C 484.87 603.29 487.63 598.96 490.00 595.00
C 490.82 593.62 491.24 591.41 492.00 590.00
C 487.22 595.43 485.04 600.50 482.00 607.00 Z"/>
</g>
<g fill="None" fill-opacity="0.0" stroke="#FD7B34" stroke-opacity="1.00" stroke-width="0.3"><path d="
M 482.00 607.00 
C 477.90 612.29 474.71 618.36 471.00 624.00
C 464.57 633.76 456.47 644.05 451.00 654.00
C 450.59 655.30 450.49 656.77 450.00 658.00
C 443.10 675.32 431.80 690.63 428.00 709.00
C 427.16 717.39 427.17 726.59 424.00 734.00
C 417.05 712.12 407.96 690.04 395.92 670.08 C 383.88 650.12 365.20 640.13 348.00 626.00
C 347.55 625.85 346.50 626.01 346.00 626.00
C 343.82 625.95 343.46 625.92 343.00 628.00
C 346.94 635.82 350.69 643.84 350.00 653.00
C 340.60 647.14 330.65 641.28 320.00 638.00
C 321.91 643.93 325.90 649.26 325.00 656.00
C 311.98 652.91 299.58 647.88 286.00 647.00
C 289.60 652.63 292.20 660.38 292.07 666.93 C 291.95 673.47 295.42 685.27 291.92 690.92 C 288.41 696.56 276.99 689.86 272.00 689.00
C 269.88 688.64 268.08 688.41 266.00 688.00
C 270.97 691.55 272.59 702.45 278.25 706.75 C 283.90 711.05 286.69 718.73 292.75 723.25 C 298.82 727.76 302.41 734.11 308.75 738.25 C 315.08 742.40 319.73 747.43 326.23 751.77 C 332.73 756.11 339.54 758.46 347.08 761.92 C 354.61 765.39 362.58 766.93 371.00 769.00 C 379.42 771.06 388.66 772.77 398.00 773.00 C 407.34 773.23 418.13 772.38 427.00 770.00
C 430.04 803.53 477.43 823.99 501.75 799.75 C 526.08 775.51 510.30 729.39 481.00 718.00
C 487.97 714.94 494.89 721.90 501.00 725.00
C 504.19 705.56 505.44 684.97 509.00 666.00
C 512.31 684.31 512.83 704.59 520.00 722.00
C 525.31 735.87 531.47 744.97 547.67 746.33 C 563.87 747.69 572.89 738.26 574.00 722.00
C 574.94 708.23 573.69 692.15 572.00 680.00
C 570.46 675.18 567.80 670.70 566.00 666.00
C 558.24 645.75 544.30 629.51 539.00 608.00
C 538.72 606.85 538.10 605.73 538.00 604.00
C 531.11 602.90 516.05 604.05 510.22 601.78 C 504.39 599.51 489.59 599.46 490.00 595.00
C 487.63 598.96 484.87 603.29 482.00 607.00 Z"/>
</g>
<g fill="None" fill-opacity="0.0" stroke="#FB7B36" stroke-opacity="1.00" stroke-width="0.3"><path d="
M 625.00 612.00 
C 622.36 632.26 606.22 649.03 598.00 667.00
C 595.83 671.75 593.86 676.20 592.00 681.00
C 589.89 693.35 588.05 710.06 589.00 724.00
C 589.49 731.27 591.53 740.33 599.00 744.00
C 599.40 744.20 600.00 744.00 600.00 744.00
C 617.12 754.78 640.50 737.27 642.00 719.00
C 641.95 744.26 632.96 770.28 630.00 796.00
C 630.18 797.31 629.86 798.69 630.00 800.00
C 639.35 801.02 648.02 797.80 655.00 792.00
C 655.53 793.28 654.03 793.86 654.00 795.00
C 658.11 790.38 660.66 784.80 664.00 780.00
C 664.08 779.51 663.93 778.49 664.00 778.00
C 664.47 774.58 665.76 771.59 666.00 768.00
C 666.73 757.23 665.40 746.41 661.00 737.00
C 656.98 730.69 654.63 725.45 647.77 721.23 C 640.91 717.01 646.07 705.53 648.00 700.00
C 648.01 699.50 648.00 698.50 648.00 698.00
C 648.00 687.86 651.00 678.42 651.00 668.00
C 651.00 657.33 651.00 646.67 651.00 636.00
C 651.00 625.34 649.73 615.27 648.00 605.00
C 647.72 603.36 646.32 601.28 646.00 600.00
C 642.40 603.57 633.98 603.81 628.00 604.00
C 627.91 602.00 628.12 599.99 628.00 598.00
C 627.60 602.10 625.94 607.96 625.00 612.00 Z"/>
</g>
<g fill="None" fill-opacity="0.0" stroke="#FEEECF" stroke-opacity="1.00" stroke-width="0.3"><path d="
M 539.00 608.00 
C 544.30 629.51 558.24 645.75 566.00 666.00
C 569.63 671.81 572.68 685.40 581.03 686.97 C 589.37 688.55 595.03 671.74 598.00 667.00
C 606.22 649.03 622.36 632.26 625.00 612.00
C 624.37 609.08 626.03 606.74 626.00 604.00
C 597.82 606.99 567.46 604.51 539.00 604.00
C 538.86 605.31 539.18 606.69 539.00 608.00 Z"/>
</g>
<g fill="None" fill-opacity="0.0" stroke="#FEEBD5" stroke-opacity="1.00" stroke-width="0.3"><path d="
M 651.00 636.00 
C 651.97 646.06 651.97 658.01 651.00 668.00
C 651.00 678.42 648.00 687.86 648.00 698.00
C 656.00 686.22 652.04 665.90 653.00 652.00 C 653.96 638.10 653.93 616.97 648.00 605.00
C 649.73 615.27 651.00 625.34 651.00 636.00 Z"/>
</g>
<g fill="None" fill-opacity="0.0" stroke="#EDCCAB" stroke-opacity="1.00" stroke-width="0.3"><path d="
M 246.00 685.00 
C 246.30 686.45 246.45 686.92 247.00 688.00
C 248.50 683.13 262.01 687.22 266.00 688.00
C 268.08 688.41 269.88 688.64 272.00 689.00
C 257.41 684.62 253.38 668.48 246.31 655.69 C 239.23 642.91 238.17 625.91 234.00 612.00
C 227.99 637.36 241.12 661.36 246.00 685.00 Z"/>
</g>
<g fill="None" fill-opacity="0.0" stroke="#D6A46F" stroke-opacity="1.00" stroke-width="0.3"><path d="
M 343.00 628.00 
C 343.46 625.92 343.82 625.95 346.00 626.00
C 344.66 624.37 342.11 623.40 340.00 623.00
C 340.52 624.92 342.12 626.49 343.00 628.00 Z"/>
</g>
<g fill="None" fill-opacity="0.0" stroke="#FDE3C4" stroke-opacity="1.00" stroke-width="0.3"><path d="
M 451.00 654.00 
C 456.47 644.05 464.57 633.76 471.00 624.00
C 464.12 632.38 454.34 643.53 451.00 654.00 Z"/>
</g>
<g fill="None" fill-opacity="0.0" stroke="#EFAF85" stroke-opacity="1.00" stroke-width="0.3"><path d="
M 651.00 668.00 
C 651.97 658.01 651.97 646.06 651.00 636.00
C 651.00 646.67 651.00 657.33 651.00 668.00 Z"/>
</g>
<g fill="None" fill-opacity="0.0" stroke="#FBE0C3" stroke-opacity="1.00" stroke-width="0.3"><path d="
M 428.00 709.00 
C 431.80 690.63 443.10 675.32 450.00 658.00
C 448.04 658.90 446.73 658.12 445.00 660.00
C 443.75 667.37 438.90 674.80 435.92 682.92 C 432.94 691.04 428.92 700.08 428.00 709.00 Z"/>
</g>
<g fill="None" fill-opacity="0.0" stroke="#D14D27" stroke-opacity="1.00" stroke-width="0.3"><path d="
M 266.00 688.00 
C 262.01 687.22 248.50 683.13 247.00 688.00
C 251.14 696.16 255.21 705.81 260.08 713.92 C 264.95 722.03 269.80 729.73 276.08 736.92 C 282.36 744.10 287.51 750.61 294.75 757.25 C 302.00 763.89 308.58 768.90 316.75 774.25 C 324.92 779.59 332.53 784.29 341.77 788.23 C 351.02 792.17 360.92 795.37 370.99 798.01 C 381.06 800.64 393.29 799.90 404.00 802.00 C 414.71 804.10 430.38 797.13 438.00 802.00
C 443.95 805.80 447.72 812.85 454.70 816.30 C 461.68 819.76 470.87 823.14 479.00 823.00
C 481.01 822.96 485.32 822.21 488.00 822.00
C 500.00 821.05 511.56 818.00 524.00 818.00
C 527.11 817.70 531.43 816.27 535.00 816.00
C 534.92 812.88 534.24 810.19 534.00 807.00
C 532.90 800.22 530.82 792.24 530.00 785.00 C 529.19 777.76 526.36 770.91 525.01 763.99 C 523.66 757.07 523.90 748.13 521.22 741.78 C 518.54 735.42 522.80 734.76 519.67 730.33 C 516.54 725.90 520.00 722.19 520.00 722.00
C 512.83 704.59 512.31 684.31 509.00 666.00
C 505.44 684.97 504.19 705.56 501.00 725.00
C 494.89 721.90 487.97 714.94 481.00 718.00
C 510.30 729.39 526.08 775.51 501.75 799.75 C 477.43 823.99 430.04 803.53 427.00 770.00
C 418.13 772.38 407.34 773.23 398.00 773.00 C 388.66 772.77 379.42 771.06 371.00 769.00 C 362.58 766.93 354.61 765.39 347.08 761.92 C 339.54 758.46 332.73 756.11 326.23 751.77 C 319.73 747.43 315.08 742.40 308.75 738.25 C 302.41 734.11 298.82 727.76 292.75 723.25 C 286.69 718.73 283.90 711.05 278.25 706.75 C 272.59 702.45 270.97 691.55 266.00 688.00 Z"/>
</g>
<g fill="None" fill-opacity="0.0" stroke="#F5BF96" stroke-opacity="1.00" stroke-width="0.3"><path d="
M 572.00 680.00 
C 577.03 695.69 576.70 712.83 580.00 729.00
C 588.44 726.16 584.90 713.54 586.78 705.78 C 588.66 698.02 588.86 688.51 592.00 681.00
C 593.86 676.20 595.83 671.75 598.00 667.00
C 595.03 671.74 589.37 688.55 581.03 686.97 C 572.68 685.40 569.63 671.81 566.00 666.00
C 567.80 670.70 570.46 675.18 572.00 680.00 Z"/>
</g>
<g fill="None" fill-opacity="0.0" stroke="#CA4F29" stroke-opacity="1.00" stroke-width="0.3"><path d="
M 574.00 722.00 
C 576.79 735.24 577.61 751.34 577.98 767.02 C 578.34 782.71 578.00 801.07 578.00 817.00
C 580.06 816.50 582.25 817.11 584.00 818.00
C 584.00 817.50 584.00 817.00 584.00 817.00
C 581.02 812.97 583.94 806.13 583.00 801.00 C 582.06 795.87 583.57 788.47 584.00 784.00
C 584.00 773.27 585.30 763.51 585.00 753.00 C 584.70 742.49 586.42 731.83 589.00 724.00
C 588.05 710.06 589.89 693.35 592.00 681.00
C 588.86 688.51 588.66 698.02 586.78 705.78 C 584.90 713.54 588.44 726.16 580.00 729.00
C 576.70 712.83 577.03 695.69 572.00 680.00
C 573.69 692.15 574.94 708.23 574.00 722.00 Z"/>
</g>
<g fill="None" fill-opacity="0.0" stroke="#FEE6CA" stroke-opacity="1.00" stroke-width="0.3"><path d="
M 661.00 737.00 
C 661.73 738.14 663.46 739.83 664.00 741.00
C 661.79 734.10 660.05 726.06 652.22 721.78 C 644.40 717.49 647.76 709.22 648.00 700.00
C 646.07 705.53 640.91 717.01 647.77 721.23 C 654.63 725.45 656.98 730.69 661.00 737.00 Z"/>
</g>
<g fill="None" fill-opacity="0.0" stroke="#76240E" stroke-opacity="1.00" stroke-width="0.3"><path d="
M 600.00 744.00 
C 600.06 745.00 599.96 746.00 600.00 747.00
C 615.25 751.85 631.28 746.04 639.00 734.00
C 633.54 758.58 630.09 785.58 625.00 811.00
C 626.73 812.61 630.31 814.35 632.00 812.00
C 630.34 812.09 628.66 811.93 627.00 812.00
C 627.89 806.74 628.66 800.77 630.00 796.00
C 632.96 770.28 641.95 744.26 642.00 719.00
C 640.50 737.27 617.12 754.78 600.00 744.00 Z"/>
</g>
<g fill="None" fill-opacity="0.0" stroke="#772311" stroke-opacity="1.00" stroke-width="0.3"><path d="
M 534.00 807.00 
C 532.20 783.42 527.35 761.12 523.00 738.00
C 531.31 743.44 539.03 747.69 550.00 748.00 C 560.97 748.31 570.99 745.61 572.00 736.00
C 579.37 746.01 574.52 762.10 576.78 775.22 C 579.04 788.34 574.71 805.44 578.00 818.00
C 578.09 817.98 578.00 817.00 578.00 817.00
C 578.00 801.07 578.34 782.71 577.98 767.02 C 577.61 751.34 576.79 735.24 574.00 722.00
C 572.89 738.26 563.87 747.69 547.67 746.33 C 531.47 744.97 525.31 735.87 520.00 722.00
C 520.00 722.19 516.54 725.90 519.67 730.33 C 522.80 734.76 518.54 735.42 521.22 741.78 C 523.90 748.13 523.66 757.07 525.01 763.99 C 526.36 770.91 529.19 777.76 530.00 785.00 C 530.82 792.24 532.90 800.22 534.00 807.00 Z"/>
</g>
<g fill="None" fill-opacity="0.0" stroke="#73200E" stroke-opacity="1.00" stroke-width="0.3"><path d="
M 584.00 784.00 
C 584.00 794.67 584.00 805.33 584.00 816.00
C 588.55 809.84 583.71 799.23 585.00 791.00 C 586.29 782.77 584.72 774.32 586.33 765.33 C 587.94 756.34 586.99 751.31 587.00 741.00 C 587.01 730.69 594.92 747.08 599.00 744.00
C 591.53 740.33 589.49 731.27 589.00 724.00
C 586.42 731.83 584.70 742.49 585.00 753.00 C 585.30 763.51 584.00 773.27 584.00 784.00 Z"/>
</g>
<g fill="None" fill-opacity="0.0" stroke="#5B201D" stroke-opacity="1.00" stroke-width="0.3"><path d="
M 600.00 744.00 
C 600.00 744.00 599.40 744.20 599.00 744.00
C 594.92 747.08 587.01 730.69 587.00 741.00 C 586.99 751.31 587.94 756.34 586.33 765.33 C 584.72 774.32 586.29 782.77 585.00 791.00 C 583.71 799.23 588.55 809.84 584.00 816.00
C 584.00 816.50 584.00 817.00 584.00 817.00
C 584.00 817.00 584.00 817.50 584.00 818.00
C 584.00 827.31 583.64 836.70 584.00 846.00
C 582.34 867.65 621.40 866.77 621.00 846.00
C 627.54 850.00 647.08 848.25 647.67 838.67 C 648.25 829.09 639.97 821.06 636.00 813.00
C 635.87 812.73 635.26 812.22 635.00 812.00
C 634.75 811.80 632.34 811.92 632.00 812.00
C 630.31 814.35 626.73 812.61 625.00 811.00
C 630.09 785.58 633.54 758.58 639.00 734.00
C 631.28 746.04 615.25 751.85 600.00 747.00
C 599.96 746.00 600.06 745.00 600.00 744.00 Z"/>
</g>
<g fill="None" fill-opacity="0.0" stroke="#5C201D" stroke-opacity="1.00" stroke-width="0.3"><path d="
M 534.00 807.00 
C 534.24 810.19 534.92 812.88 535.00 816.00
C 535.01 816.50 535.00 817.00 535.00 817.00
C 541.18 827.81 534.92 848.18 544.75 857.25 C 554.59 866.31 573.48 862.43 577.00 850.00
C 577.89 844.15 576.48 837.90 577.00 832.00
C 577.40 827.45 578.47 822.89 578.00 818.00
C 574.71 805.44 579.04 788.34 576.78 775.22 C 574.52 762.10 579.37 746.01 572.00 736.00
C 570.99 745.61 560.97 748.31 550.00 748.00 C 539.03 747.69 531.31 743.44 523.00 738.00
C 527.35 761.12 532.20 783.42 534.00 807.00 Z"/>
</g>
<g fill="None" fill-opacity="0.0" stroke="#E2A179" stroke-opacity="1.00" stroke-width="0.3"><path d="
M 666.00 768.00 
C 667.06 762.10 667.41 755.27 666.00 749.00
C 665.39 746.29 664.83 743.60 664.00 741.00
C 663.46 739.83 661.73 738.14 661.00 737.00
C 665.40 746.41 666.73 757.23 666.00 768.00 Z"/>
</g>
<g fill="None" fill-opacity="0.0" stroke="#FEDEC7" stroke-opacity="1.00" stroke-width="0.3"><path d="
M 666.00 768.00 
C 665.76 771.59 664.47 774.58 664.00 778.00
C 669.28 770.22 669.03 757.52 666.00 749.00
C 667.41 755.27 667.06 762.10 666.00 768.00 Z"/>
</g>
<g fill="None" fill-opacity="0.0" stroke="#F8DBC7" stroke-opacity="1.00" stroke-width="0.3"><path d="
M 654.00 795.00 
C 651.36 797.97 647.79 801.24 645.25 804.25 C 642.71 807.26 635.63 808.64 635.00 812.00
C 635.26 812.22 635.87 812.73 636.00 813.00
C 641.61 809.85 644.46 804.68 651.00 804.00
C 653.34 795.08 662.37 789.38 664.00 780.00
C 660.66 784.80 658.11 790.38 654.00 795.00 Z"/>
</g>
<g fill="None" fill-opacity="0.0" stroke="#A63E24" stroke-opacity="1.00" stroke-width="0.3"><path d="
M 584.00 817.00 
C 584.00 817.00 584.00 816.50 584.00 816.00
C 584.00 805.33 584.00 794.67 584.00 784.00
C 583.57 788.47 582.06 795.87 583.00 801.00 C 583.94 806.13 581.02 812.97 584.00 817.00 Z"/>
</g>
<g fill="None" fill-opacity="0.0" stroke="#CA542D" stroke-opacity="1.00" stroke-width="0.3"><path d="
M 630.00 796.00 
C 628.66 800.77 627.89 806.74 627.00 812.00
C 628.66 811.93 630.34 812.09 632.00 812.00
C 632.34 811.92 634.75 811.80 635.00 812.00
C 635.63 808.64 642.71 807.26 645.25 804.25 C 647.79 801.24 651.36 797.97 654.00 795.00
C 654.03 793.86 655.53 793.28 655.00 792.00
C 648.02 797.80 639.35 801.02 630.00 800.00
C 629.86 798.69 630.18 797.31 630.00 796.00 Z"/>
</g>
<g fill="None" fill-opacity="0.0" stroke="#5C211F" stroke-opacity="1.00" stroke-width="0.3"><path d="
M 480.00 826.00 
C 479.74 825.22 478.42 824.42 479.00 823.00
C 470.87 823.14 461.68 819.76 454.70 816.30 C 447.72 812.85 443.95 805.80 438.00 802.00
C 441.95 808.94 439.73 822.60 443.01 829.99 C 446.29 837.39 444.43 849.04 453.31 852.69 C 462.18 856.35 472.66 856.70 480.25 851.25 C 487.84 845.80 482.20 832.72 480.00 826.00 Z"/>
</g>
<g fill="None" fill-opacity="0.0" stroke="#D8927A" stroke-opacity="1.00" stroke-width="0.3"><path d="
M 524.00 818.00 
C 527.79 818.00 531.51 818.01 535.00 817.00
C 535.00 817.00 535.01 816.50 535.00 816.00
C 531.43 816.27 527.11 817.70 524.00 818.00 Z"/>
</g>
<g fill="None" fill-opacity="0.0" stroke="#B38F85" stroke-opacity="1.00" stroke-width="0.3"><path d="
M 578.00 818.00 
C 579.67 818.00 581.33 818.00 583.00 818.00
C 582.84 827.29 582.77 837.42 584.00 846.00
C 583.64 836.70 584.00 827.31 584.00 818.00
C 582.25 817.11 580.06 816.50 578.00 817.00
C 578.00 817.00 578.09 817.98 578.00 818.00 Z"/>
</g>
<g fill="None" fill-opacity="0.0" stroke="#E5A999" stroke-opacity="1.00" stroke-width="0.3"><path d="
M 479.00 823.00 
C 478.42 824.42 479.74 825.22 480.00 826.00
C 480.00 825.00 480.00 824.00 480.00 823.00
C 482.76 823.76 485.91 822.40 488.00 822.00
C 485.32 822.21 481.01 822.96 479.00 823.00 Z"/>
</g>
<g fill="None" fill-opacity="0.0" stroke="#997876" stroke-opacity="1.00" stroke-width="0.3"><path d="
M 577.00 850.00 
C 578.61 844.32 577.05 837.56 577.00 832.00
C 576.48 837.90 577.89 844.15 577.00 850.00 Z"/>
</g>
<g fill="#FEFEFE" fill-opacity="1.00" stroke="None">
<path d="
M 0.00 1024.00 
L 1024.00 1024.00
L 1024.00 0.00
L 0.00 0.00
L 0.00 1024.00
M 343.00 290.00 
C 346.22 296.72 347.42 307.06 353.92 312.08 C 360.42 317.11 362.91 326.16 372.25 327.75 C 381.58 329.34 389.35 339.49 377.00 341.00 C 364.65 342.50 360.37 336.76 351.31 333.69 C 342.24 330.63 338.54 324.88 332.25 318.75 C 325.96 312.63 323.30 305.25 319.00 298.00
C 270.40 308.07 232.25 258.39 245.78 213.78 C 259.30 169.17 313.99 153.88 349.75 181.25 C 385.51 208.62 382.01 267.22 343.00 290.00
M 487.00 205.00 
C 497.01 215.01 504.99 227.44 512.00 239.00
C 518.28 245.80 521.78 253.25 523.00 262.00
C 524.25 265.27 524.77 268.70 526.00 272.00
C 526.06 272.16 527.00 272.00 527.00 272.00
C 537.07 277.76 551.71 268.11 562.07 270.07 C 572.43 272.04 591.46 265.69 600.00 272.00
C 600.50 272.00 601.00 272.00 601.00 272.00
C 605.41 272.00 608.59 273.34 612.00 274.00
C 616.18 274.33 619.98 274.15 624.00 275.00
C 623.70 273.43 624.25 271.39 626.00 271.00
C 627.23 266.66 628.85 262.39 630.00 258.00
C 630.35 256.65 630.65 255.35 631.00 254.00
C 633.31 245.08 637.48 237.07 642.33 229.33 C 647.17 221.59 657.27 217.11 656.00 208.00
C 662.46 205.68 668.59 196.68 675.00 195.00
C 680.40 189.60 686.70 185.55 693.00 182.00
C 697.22 178.64 697.81 176.93 704.00 176.00
C 712.74 174.69 714.87 179.04 717.00 187.00
C 725.32 201.51 727.44 216.55 730.99 233.01 C 734.54 249.47 737.00 270.41 737.00 288.00
C 737.49 293.04 737.48 299.03 737.00 304.00
C 737.00 319.09 735.67 332.77 733.00 347.00
C 732.82 347.96 733.11 349.03 733.00 350.00
C 732.47 354.77 737.22 360.15 739.77 365.23 C 742.32 370.31 744.55 377.33 746.00 383.00
C 747.79 387.85 749.98 392.29 751.00 398.00
C 752.56 406.72 754.67 415.11 756.00 424.00
C 758.04 430.81 758.57 432.59 760.00 442.00 C 761.43 451.41 775.64 459.73 784.00 462.00
C 788.69 462.32 793.66 462.26 798.00 461.00
C 797.61 462.57 798.94 465.22 797.00 466.00
C 796.76 466.30 797.00 467.00 797.00 467.00
C 799.62 470.58 792.82 477.92 789.25 481.25 C 785.67 484.58 776.48 487.58 772.00 489.00
C 777.61 491.81 782.40 497.06 789.00 498.00
C 783.61 506.43 776.32 515.04 767.25 521.25 C 758.17 527.45 748.66 532.45 739.70 538.70 C 730.74 544.94 719.20 547.85 709.31 553.31 C 699.41 558.76 687.48 562.08 676.31 565.31 C 665.13 568.53 650.37 571.43 641.00 576.00
C 644.61 581.67 644.34 593.35 646.00 600.00
C 646.32 601.28 647.72 603.36 648.00 605.00
C 653.93 616.97 653.96 638.10 653.00 652.00 C 652.04 665.90 656.00 686.22 648.00 698.00
C 648.00 698.50 648.01 699.50 648.00 700.00
C 647.76 709.22 644.40 717.49 652.22 721.78 C 660.05 726.06 661.79 734.10 664.00 741.00
C 664.83 743.60 665.39 746.29 666.00 749.00
C 669.03 757.52 669.28 770.22 664.00 778.00
C 663.93 778.49 664.08 779.51 664.00 780.00
C 662.37 789.38 653.34 795.08 651.00 804.00
C 644.46 804.68 641.61 809.85 636.00 813.00
C 639.97 821.06 648.25 829.09 647.67 838.67 C 647.08 848.25 627.54 850.00 621.00 846.00
C 621.40 866.77 582.34 867.65 584.00 846.00
C 582.77 837.42 582.84 827.29 583.00 818.00
C 581.33 818.00 579.67 818.00 578.00 818.00
C 578.47 822.89 577.40 827.45 577.00 832.00
C 577.05 837.56 578.61 844.32 577.00 850.00
C 573.48 862.43 554.59 866.31 544.75 857.25 C 534.92 848.18 541.18 827.81 535.00 817.00
C 531.51 818.01 527.79 818.00 524.00 818.00
C 511.56 818.00 500.00 821.05 488.00 822.00
C 485.91 822.40 482.76 823.76 480.00 823.00
C 480.00 824.00 480.00 825.00 480.00 826.00
C 482.20 832.72 487.84 845.80 480.25 851.25 C 472.66 856.70 462.18 856.35 453.31 852.69 C 444.43 849.04 446.29 837.39 443.01 829.99 C 439.73 822.60 441.95 808.94 438.00 802.00
C 430.38 797.13 414.71 804.10 404.00 802.00 C 393.29 799.90 381.06 800.64 370.99 798.01 C 360.92 795.37 351.02 792.17 341.77 788.23 C 332.53 784.29 324.92 779.59 316.75 774.25 C 308.58 768.90 302.00 763.89 294.75 757.25 C 287.51 750.61 282.36 744.10 276.08 736.92 C 269.80 729.73 264.95 722.03 260.08 713.92 C 255.21 705.81 251.14 696.16 247.00 688.00
C 246.45 686.92 246.30 686.45 246.00 685.00
C 239.60 668.83 232.09 651.50 232.00 632.00 C 231.92 612.50 229.49 588.77 239.00 572.00
C 255.05 584.65 269.48 597.41 289.25 603.75 C 309.01 610.10 330.39 616.71 348.00 626.00
C 365.20 640.13 383.88 650.12 395.92 670.08 C 407.96 690.04 417.05 712.12 424.00 734.00
C 427.17 726.59 427.16 717.39 428.00 709.00
C 428.92 700.08 432.94 691.04 435.92 682.92 C 438.90 674.80 443.75 667.37 445.00 660.00
C 446.73 658.12 448.04 658.90 450.00 658.00
C 450.49 656.77 450.59 655.30 451.00 654.00
C 454.34 643.53 464.12 632.38 471.00 624.00
C 474.71 618.36 477.90 612.29 482.00 607.00
C 485.04 600.50 487.22 595.43 492.00 590.00
C 493.54 587.16 495.39 584.02 497.00 581.00
C 497.54 579.23 497.48 574.35 500.00 572.00
C 477.33 567.43 456.86 562.31 437.00 551.00
C 429.93 548.09 422.72 543.17 416.26 539.74 C 409.79 536.31 400.43 531.96 394.92 528.08 C 389.42 524.19 380.18 518.73 376.25 514.75 C 372.32 510.77 359.46 502.60 365.00 497.00
C 367.36 494.61 372.16 494.60 374.00 494.00
C 375.65 492.84 376.94 491.16 379.22 491.22 C 381.51 491.29 382.11 487.57 383.00 487.00
C 375.77 486.62 368.89 484.21 363.00 480.00
C 356.70 475.50 351.79 468.02 353.00 460.00
C 354.81 459.86 357.08 460.44 358.00 462.00
C 367.67 462.79 375.85 460.26 384.00 456.00
C 393.30 449.75 392.05 439.77 393.00 430.00
C 394.00 419.65 395.81 408.86 400.00 400.00
C 402.24 387.11 407.83 372.55 414.00 361.00
C 414.84 358.34 415.51 352.40 419.00 350.00
C 413.70 340.74 416.32 327.65 414.07 316.93 C 411.83 306.21 414.67 290.70 414.78 279.78 C 414.89 268.86 416.54 255.57 418.00 245.00 C 419.46 234.43 422.03 223.83 424.93 213.93 C 427.82 204.02 429.87 194.93 435.00 186.00
C 436.12 183.29 436.43 180.57 438.00 178.00
C 444.63 167.18 458.34 178.77 465.70 184.30 C 473.05 189.83 482.88 198.63 487.00 205.00 Z"/>
</g>
<g fill="#ADADAD" fill-opacity="1.00" stroke="None">
<path d="
M 343.00 290.00 
C 382.01 267.22 385.51 208.62 349.75 181.25 C 313.99 153.88 259.30 169.17 245.78 213.78 C 232.25 258.39 270.40 308.07 319.00 298.00
C 323.30 305.25 325.96 312.63 332.25 318.75 C 338.54 324.88 342.24 330.63 351.31 333.69 C 360.37 336.76 364.65 342.50 377.00 341.00 C 389.35 339.49 381.58 329.34 372.25 327.75 C 362.91 326.16 360.42 317.11 353.92 312.08 C 347.42 307.06 346.22 296.72 343.00 290.00 Z"/>
</g>
<g fill="#FEEED8" fill-opacity="1.00" stroke="None">
<path d="
M 438.00 178.00 
C 441.57 173.43 445.34 175.47 449.00 177.00
C 463.52 180.88 476.17 194.17 487.00 205.00
C 482.88 198.63 473.05 189.83 465.70 184.30 C 458.34 178.77 444.63 167.18 438.00 178.00 Z"/>
</g>
<g fill="#E9B492" fill-opacity="1.00" stroke="None">
<path d="
M 438.00 178.00 
C 436.43 180.57 436.12 183.29 435.00 186.00
C 435.12 185.78 436.00 186.00 436.00 186.00
C 439.40 178.95 439.61 174.49 449.00 177.00
C 445.34 175.47 441.57 173.43 438.00 178.00 Z"/>
</g>
<g fill="#FC7C35" fill-opacity="1.00" stroke="None">
<path d="
M 704.00 176.00 
C 700.44 177.20 696.49 180.03 693.00 182.00
C 686.70 185.55 680.40 189.60 675.00 195.00
C 670.25 199.75 664.23 204.95 660.00 210.00
C 649.71 224.41 638.44 238.18 631.00 254.00
C 630.65 255.35 630.35 256.65 630.00 258.00
C 630.17 259.15 633.81 268.05 637.75 271.25 C 641.70 274.45 647.18 277.13 651.70 280.30 C 656.21 283.48 663.51 284.38 668.00 288.00
C 653.87 287.26 639.33 277.53 624.00 277.00
C 617.78 276.31 612.07 275.22 605.99 274.01 C 599.92 272.80 593.00 273.17 586.93 272.07 C 580.86 270.97 571.01 272.55 565.33 272.33 C 559.65 272.11 550.75 274.89 546.00 274.00 C 541.25 273.11 529.28 279.62 527.00 275.00
C 526.72 274.42 527.45 272.42 527.00 272.00
C 527.00 272.00 526.06 272.16 526.00 272.00
C 526.29 273.62 525.78 275.37 526.00 277.00
C 515.90 276.60 507.58 282.41 498.00 284.00
C 506.83 276.78 523.34 272.28 520.00 257.00
C 522.07 257.88 521.21 261.04 523.00 262.00
C 520.74 253.96 516.37 246.21 512.00 239.00
C 504.99 227.44 497.01 215.01 487.00 205.00
C 476.17 194.17 463.52 180.88 449.00 177.00
C 439.61 174.49 439.40 178.95 436.00 186.00
C 444.29 186.62 446.89 196.56 450.92 203.08 C 454.96 209.59 458.64 217.47 461.77 225.23 C 464.90 232.99 466.95 241.74 469.78 250.22 C 472.60 258.70 472.36 268.95 474.98 278.02 C 477.59 287.10 475.85 297.02 466.75 299.75 C 457.65 302.48 455.20 309.71 447.75 313.75 C 440.31 317.79 438.10 326.76 432.23 331.23 C 426.36 335.70 424.86 348.22 419.00 351.00
C 418.25 354.40 415.66 357.89 414.00 361.00
C 407.83 372.55 402.24 387.11 400.00 400.00
C 399.92 400.49 400.01 401.50 400.00 402.00
C 399.80 409.85 396.52 417.86 395.00 425.00
C 395.00 426.00 395.03 427.00 395.00 428.00
C 394.66 438.09 393.91 450.82 384.00 456.00
C 375.85 460.26 367.67 462.79 358.00 462.00
C 356.38 461.87 355.08 460.30 354.00 462.00
C 362.27 477.18 382.10 480.28 397.00 479.00
C 391.16 479.95 388.67 488.13 383.00 487.00
C 382.11 487.57 381.51 491.29 379.22 491.22 C 376.94 491.16 375.65 492.84 374.00 494.00
C 372.67 494.93 370.73 496.32 370.00 498.00
C 377.34 498.90 383.05 494.15 390.00 494.00
C 409.83 487.13 426.95 471.50 447.00 466.00
C 450.41 464.16 456.06 462.61 459.23 460.23 C 462.40 457.85 472.95 460.78 474.00 459.00
C 473.23 456.94 473.15 454.27 473.00 452.00
C 472.28 447.96 472.44 443.94 473.00 440.00
C 473.35 430.84 477.32 416.45 489.08 415.08 C 500.83 413.71 506.85 426.36 508.00 437.00 C 509.15 447.64 508.38 459.29 499.00 467.00
C 497.19 468.49 496.61 469.58 494.00 470.00
C 496.33 474.62 498.96 484.57 497.00 489.00
C 503.18 484.40 511.37 477.27 514.31 470.30 C 517.24 463.34 524.28 453.62 528.75 448.75 C 533.22 443.89 545.19 430.77 551.00 436.00
C 550.02 426.63 555.92 422.70 564.00 421.00
C 569.99 419.00 575.83 418.90 582.00 420.00
C 591.46 420.64 600.92 423.86 600.00 435.00
C 622.95 437.88 630.21 464.04 643.00 479.00
C 646.22 482.22 650.10 486.19 654.00 488.00
C 653.80 481.66 653.34 474.53 658.00 470.00
C 645.78 468.09 642.15 453.77 643.00 443.00 C 643.85 432.23 645.89 419.95 657.70 415.70 C 669.50 411.44 676.44 426.96 678.00 436.00
C 679.44 441.03 679.93 444.82 679.00 450.00
C 678.78 453.26 678.14 455.99 677.00 459.00
C 683.07 454.56 699.46 463.61 705.00 466.00
C 728.76 476.25 748.51 491.35 774.00 497.00
C 776.33 497.52 780.18 499.29 782.00 497.00
C 777.65 493.33 770.27 492.33 768.00 487.00
C 764.66 484.51 759.26 482.77 756.00 480.00
C 760.99 479.37 767.64 477.83 773.07 478.07 C 778.50 478.31 782.81 473.85 787.23 472.23 C 791.65 470.61 795.48 464.09 797.00 466.00
C 798.94 465.22 797.61 462.57 798.00 461.00
C 793.66 462.26 788.69 462.32 784.00 462.00
C 776.19 461.47 767.14 457.37 762.25 450.75 C 757.36 444.13 757.24 432.31 756.00 424.00
C 754.67 415.11 752.56 406.72 751.00 398.00
C 749.51 393.28 747.31 388.12 746.00 383.00
C 744.55 377.33 742.32 370.31 739.77 365.23 C 737.22 360.15 732.47 354.77 733.00 350.00
C 731.95 348.23 726.92 342.67 724.70 338.30 C 722.48 333.93 718.11 328.94 715.00 325.00
C 711.38 321.09 706.86 316.57 703.00 313.00
C 695.74 307.27 693.71 303.28 684.31 299.70 C 674.90 296.11 674.29 287.38 676.93 277.93 C 679.56 268.48 678.93 258.32 681.99 249.99 C 685.06 241.66 687.27 232.22 689.98 224.98 C 692.68 217.73 697.95 208.18 700.77 202.77 C 703.59 197.36 710.73 182.77 716.00 187.00
C 716.32 186.76 717.00 187.00 717.00 187.00
C 714.87 179.04 712.74 174.69 704.00 176.00
M 495.00 369.00 
C 503.40 371.55 502.69 385.65 494.92 387.92 C 487.14 390.19 479.63 398.00 471.00 396.00 C 462.37 394.00 464.10 381.04 470.75 376.75 C 477.40 372.46 485.59 366.15 495.00 369.00
M 668.00 369.00 
C 674.27 370.30 692.60 382.76 685.07 391.07 C 677.54 399.38 664.42 394.79 654.93 388.07 C 645.44 381.35 653.13 365.92 668.00 369.00 Z"/>
</g>
<g fill="#F6D1AC" fill-opacity="1.00" stroke="None">
<path d="
M 693.00 182.00 
C 696.49 180.03 700.44 177.20 704.00 176.00
C 697.81 176.93 697.22 178.64 693.00 182.00 Z"/>
</g>
<g fill="#5E211D" fill-opacity="1.00" stroke="None">
<path d="
M 419.00 350.00 
C 419.22 350.38 419.00 351.00 419.00 351.00
C 424.86 348.22 426.36 335.70 432.23 331.23 C 438.10 326.76 440.31 317.79 447.75 313.75 C 455.20 309.71 457.65 302.48 466.75 299.75 C 475.85 297.02 477.59 287.10 474.98 278.02 C 472.36 268.95 472.60 258.70 469.78 250.22 C 466.95 241.74 464.90 232.99 461.77 225.23 C 458.64 217.47 454.96 209.59 450.92 203.08 C 446.89 196.56 444.29 186.62 436.00 186.00
C 436.00 186.00 435.12 185.78 435.00 186.00
C 429.87 194.93 427.82 204.02 424.93 213.93 C 422.03 223.83 419.46 234.43 418.00 245.00 C 416.54 255.57 414.89 268.86 414.78 279.78 C 414.67 290.70 411.83 306.21 414.07 316.93 C 416.32 327.65 413.70 340.74 419.00 350.00 Z"/>
</g>
<g fill="#72240D" fill-opacity="1.00" stroke="None">
<path d="
M 703.00 313.00 
C 707.34 316.43 711.61 320.71 715.00 325.00
C 718.11 328.94 722.48 333.93 724.70 338.30 C 726.92 342.67 731.95 348.23 733.00 350.00
C 733.11 349.03 732.82 347.96 733.00 347.00
C 729.01 337.54 718.96 330.10 716.00 321.00
C 712.80 320.09 708.48 314.82 702.92 311.08 C 697.36 307.34 695.20 300.57 687.25 298.75 C 679.30 296.94 675.97 289.21 677.99 281.99 C 680.01 274.77 681.06 267.00 682.78 260.78 C 684.50 254.56 684.49 249.40 686.98 241.98 C 689.46 234.55 690.99 227.96 694.30 221.30 C 697.61 214.65 699.85 208.56 703.32 202.32 C 706.79 196.08 709.66 190.65 716.00 187.00
C 710.73 182.77 703.59 197.36 700.77 202.77 C 697.95 208.18 692.68 217.73 689.98 224.98 C 687.27 232.22 685.06 241.66 681.99 249.99 C 678.93 258.32 679.56 268.48 676.93 277.93 C 674.29 287.38 674.90 296.11 684.31 299.70 C 693.71 303.28 695.74 307.27 703.00 313.00 Z"/>
</g>
<g fill="#5C211E" fill-opacity="1.00" stroke="None">
<path d="
M 733.00 347.00 
C 735.67 332.77 737.00 319.09 737.00 304.00
C 737.00 298.67 737.00 293.33 737.00 288.00
C 737.00 270.41 734.54 249.47 730.99 233.01 C 727.44 216.55 725.32 201.51 717.00 187.00
C 717.00 187.00 716.32 186.76 716.00 187.00
C 709.66 190.65 706.79 196.08 703.32 202.32 C 699.85 208.56 697.61 214.65 694.30 221.30 C 690.99 227.96 689.46 234.55 686.98 241.98 C 684.49 249.40 684.50 254.56 682.78 260.78 C 681.06 267.00 680.01 274.77 677.99 281.99 C 675.97 289.21 679.30 296.94 687.25 298.75 C 695.20 300.57 697.36 307.34 702.92 311.08 C 708.48 314.82 712.80 320.09 716.00 321.00
C 718.96 330.10 729.01 337.54 733.00 347.00 Z"/>
</g>
<g fill="#FDECD5" fill-opacity="1.00" stroke="None">
<path d="
M 631.00 254.00 
C 638.44 238.18 649.71 224.41 660.00 210.00
C 664.04 204.34 670.06 199.70 675.00 195.00
C 668.59 196.68 662.46 205.68 656.00 208.00
C 657.27 217.11 647.17 221.59 642.33 229.33 C 637.48 237.07 633.31 245.08 631.00 254.00 Z"/>
</g>
<g fill="#F2BD98" fill-opacity="1.00" stroke="None">
<path d="
M 660.00 210.00 
C 664.23 204.95 670.25 199.75 675.00 195.00
C 670.06 199.70 664.04 204.34 660.00 210.00 Z"/>
</g>
<g fill="#FEE7D0" fill-opacity="1.00" stroke="None">
<path d="
M 523.00 262.00 
C 521.78 253.25 518.28 245.80 512.00 239.00
C 516.37 246.21 520.74 253.96 523.00 262.00 Z"/>
</g>
<g fill="#CE4F25" fill-opacity="1.00" stroke="None">
<path d="
M 526.00 272.00 
C 524.77 268.70 524.25 265.27 523.00 262.00
C 521.21 261.04 522.07 257.88 520.00 257.00
C 523.34 272.28 506.83 276.78 498.00 284.00
C 507.58 282.41 515.90 276.60 526.00 277.00
C 525.78 275.37 526.29 273.62 526.00 272.00 Z"/>
</g>
<g fill="#D24F23" fill-opacity="1.00" stroke="None">
<path d="
M 630.00 258.00 
C 628.85 262.39 627.23 266.66 626.00 271.00
C 625.63 272.32 625.59 276.22 624.00 277.00
C 639.33 277.53 653.87 287.26 668.00 288.00
C 663.51 284.38 656.21 283.48 651.70 280.30 C 647.18 277.13 641.70 274.45 637.75 271.25 C 633.81 268.05 630.17 259.15 630.00 258.00 Z"/>
</g>
<g fill="#FEF2D7" fill-opacity="1.00" stroke="None">
<path d="
M 527.00 272.00 
C 527.45 272.42 526.72 274.42 527.00 275.00
C 551.00 270.54 575.43 272.00 600.00 272.00
C 591.46 265.69 572.43 272.04 562.07 270.07 C 551.71 268.11 537.07 277.76 527.00 272.00 Z"/>
</g>
<g fill="#EDAF83" fill-opacity="1.00" stroke="None">
<path d="
M 527.00 275.00 
C 529.28 279.62 541.25 273.11 546.00 274.00 C 550.75 274.89 559.65 272.11 565.33 272.33 C 571.01 272.55 580.86 270.97 586.93 272.07 C 593.00 273.17 599.92 272.80 605.99 274.01 C 612.07 275.22 617.78 276.31 624.00 277.00
C 625.59 276.22 625.63 272.32 626.00 271.00
C 624.25 271.39 623.70 273.43 624.00 275.00
C 619.98 274.15 616.18 274.33 612.00 274.00
C 609.04 273.77 603.14 273.58 601.00 272.00
C 601.00 272.00 600.50 272.00 600.00 272.00
C 575.43 272.00 551.00 270.54 527.00 275.00 Z"/>
</g>
<g fill="#FDDCBD" fill-opacity="1.00" stroke="None">
<path d="
M 612.00 274.00 
C 608.59 273.34 605.41 272.00 601.00 272.00
C 603.14 273.58 609.04 273.77 612.00 274.00 Z"/>
</g>
<g fill="#AF9290" fill-opacity="1.00" stroke="None">
<path d="
M 737.00 304.00 
C 737.48 299.03 737.49 293.04 737.00 288.00
C 737.00 293.33 737.00 298.67 737.00 304.00 Z"/>
</g>
<g fill="#A5491E" fill-opacity="1.00" stroke="None">
<path d="
M 715.00 325.00 
C 711.61 320.71 707.34 316.43 703.00 313.00
C 706.86 316.57 711.38 321.09 715.00 325.00 Z"/>
</g>
<g fill="#FCDEBF" fill-opacity="1.00" stroke="None">
<path d="
M 414.00 361.00 
C 415.66 357.89 418.25 354.40 419.00 351.00
C 419.00 351.00 419.22 350.38 419.00 350.00
C 415.51 352.40 414.84 358.34 414.00 361.00 Z"/>
</g>
<g fill="#FEECCA" fill-opacity="1.00" stroke="None">
<path d="
M 495.00 369.00 
C 485.59 366.15 477.40 372.46 470.75 376.75 C 464.10 381.04 462.37 394.00 471.00 396.00 C 479.63 398.00 487.14 390.19 494.92 387.92 C 502.69 385.65 503.40 371.55 495.00 369.00 Z"/>
</g>
<g fill="#FEECC9" fill-opacity="1.00" stroke="None">
<path d="
M 668.00 369.00 
C 653.13 365.92 645.44 381.35 654.93 388.07 C 664.42 394.79 677.54 399.38 685.07 391.07 C 692.60 382.76 674.27 370.30 668.00 369.00 Z"/>
</g>
<g fill="#F2BA94" fill-opacity="1.00" stroke="None">
<path d="
M 751.00 398.00 
C 749.98 392.29 747.79 387.85 746.00 383.00
C 747.31 388.12 749.51 393.28 751.00 398.00 Z"/>
</g>
<g fill="#FEECD6" fill-opacity="1.00" stroke="None">
<path d="
M 393.00 430.00 
C 393.14 429.60 394.91 428.32 395.00 428.00
C 395.03 427.00 395.00 426.00 395.00 425.00
C 394.97 417.87 397.11 408.05 400.00 402.00
C 400.01 401.50 399.92 400.49 400.00 400.00
C 395.81 408.86 394.00 419.65 393.00 430.00 Z"/>
</g>
<g fill="#E7A57A" fill-opacity="1.00" stroke="None">
<path d="
M 395.00 425.00 
C 396.52 417.86 399.80 409.85 400.00 402.00
C 397.11 408.05 394.97 417.87 395.00 425.00 Z"/>
</g>
<g fill="#612319" fill-opacity="1.00" stroke="None">
<path d="
M 473.00 440.00 
C 472.85 443.93 472.73 448.08 473.00 452.00
C 473.15 454.27 473.23 456.94 474.00 459.00
C 476.13 464.70 481.48 467.78 487.00 469.00
C 491.27 469.44 495.42 469.19 499.00 467.00
C 508.38 459.29 509.15 447.64 508.00 437.00 C 506.85 426.36 500.83 413.71 489.08 415.08 C 477.32 416.45 473.35 430.84 473.00 440.00
M 493.00 424.00 
C 502.23 427.76 498.47 453.04 485.92 450.07 C 473.38 447.10 478.55 418.12 493.00 424.00
M 484.00 455.00 
C 486.92 455.81 485.66 462.01 482.30 460.64 C 478.94 459.28 479.75 453.82 484.00 455.00 Z"/>
</g>
<g fill="#62231A" fill-opacity="1.00" stroke="None">
<path d="
M 658.00 470.00 
C 666.60 471.34 674.08 466.71 677.00 459.00
C 678.14 455.99 678.78 453.26 679.00 450.00
C 679.33 445.18 678.79 440.57 678.00 436.00
C 676.44 426.96 669.50 411.44 657.70 415.70 C 645.89 419.95 643.85 432.23 643.00 443.00 C 642.15 453.77 645.78 468.09 658.00 470.00
M 661.00 424.00 
C 670.84 427.69 664.49 455.32 652.99 450.01 C 641.50 444.69 648.94 419.48 661.00 424.00
M 653.00 455.00 
C 655.40 455.43 655.81 461.49 652.30 460.64 C 648.80 459.79 649.54 454.39 653.00 455.00 Z"/>
</g>
<g fill="#B14A26" fill-opacity="1.00" stroke="None">
<path d="
M 564.00 421.00 
C 569.62 419.82 576.04 419.59 582.00 420.00
C 575.83 418.90 569.99 419.00 564.00 421.00 Z"/>
</g>
<g fill="#5C211B" fill-opacity="1.00" stroke="None">
<path d="
M 564.00 421.00 
C 555.92 422.70 550.02 426.63 551.00 436.00
C 552.18 447.31 561.79 457.96 573.00 460.00
C 573.00 467.67 573.00 475.33 573.00 483.00
C 569.59 484.08 554.29 475.37 556.34 481.68 C 558.38 487.99 569.85 489.09 575.00 489.00 C 580.15 488.91 591.20 488.48 594.25 482.25 C 597.30 476.01 582.63 482.43 579.00 483.00
C 577.25 475.71 578.26 467.67 578.00 460.00
C 590.12 458.07 598.71 446.71 600.00 435.00
C 600.92 423.86 591.46 420.64 582.00 420.00
C 576.04 419.59 569.62 419.82 564.00 421.00 Z"/>
</g>
<g fill="#FAE8CE" fill-opacity="1.00" stroke="None">
<path d="
M 493.00 424.00 
C 478.55 418.12 473.38 447.10 485.92 450.07 C 498.47 453.04 502.23 427.76 493.00 424.00 Z"/>
</g>
<g fill="#FAE9CF" fill-opacity="1.00" stroke="None">
<path d="
M 661.00 424.00 
C 648.94 419.48 641.50 444.69 652.99 450.01 C 664.49 455.32 670.84 427.69 661.00 424.00 Z"/>
</g>
<g fill="#FBE1C3" fill-opacity="1.00" stroke="None">
<path d="
M 784.00 462.00 
C 775.64 459.73 761.43 451.41 760.00 442.00 C 758.57 432.59 758.04 430.81 756.00 424.00
C 757.24 432.31 757.36 444.13 762.25 450.75 C 767.14 457.37 776.19 461.47 784.00 462.00 Z"/>
</g>
<g fill="#F0B58D" fill-opacity="1.00" stroke="None">
<path d="
M 393.00 430.00 
C 392.05 439.77 393.30 449.75 384.00 456.00
C 393.91 450.82 394.66 438.09 395.00 428.00
C 394.91 428.32 393.14 429.60 393.00 430.00 Z"/>
</g>
<g fill="#FEEED0" fill-opacity="1.00" stroke="None">
<path d="
M 497.00 489.00 
C 482.63 499.69 465.35 502.44 453.00 486.00
C 450.99 483.32 450.02 480.16 449.02 476.98 C 448.03 473.79 451.61 467.75 449.00 466.00
C 448.57 466.18 447.46 465.87 447.00 466.00
C 426.95 471.50 409.83 487.13 390.00 494.00
C 388.33 494.58 386.14 495.88 384.00 496.00
C 390.40 506.65 400.82 513.42 412.75 519.25 C 424.68 525.08 436.17 531.13 447.90 537.10 C 459.62 543.07 473.80 545.50 487.22 549.78 C 500.64 554.05 514.91 557.87 529.67 560.33 C 544.43 562.79 563.04 563.70 579.00 564.00 C 594.96 564.30 613.35 563.69 628.22 561.22 C 643.09 558.76 658.53 557.70 671.69 551.70 C 684.86 545.69 697.53 544.12 710.22 538.22 C 722.92 532.33 733.80 525.73 745.70 520.70 C 757.59 515.67 767.06 505.52 778.00 500.00
C 777.29 498.37 774.62 498.71 774.00 497.00
C 748.51 491.35 728.76 476.25 705.00 466.00
C 703.35 465.82 701.65 466.14 700.00 466.00
C 708.11 480.70 694.23 496.18 679.78 497.78 C 665.33 499.38 651.65 490.35 643.00 479.00
C 630.21 464.04 622.95 437.88 600.00 435.00
C 598.71 446.71 590.12 458.07 578.00 460.00
C 578.26 467.67 577.25 475.71 579.00 483.00
C 582.63 482.43 597.30 476.01 594.25 482.25 C 591.20 488.48 580.15 488.91 575.00 489.00 C 569.85 489.09 558.38 487.99 556.34 481.68 C 554.29 475.37 569.59 484.08 573.00 483.00
C 573.00 475.33 573.00 467.67 573.00 460.00
C 561.79 457.96 552.18 447.31 551.00 436.00
C 545.19 430.77 533.22 443.89 528.75 448.75 C 524.28 453.62 517.24 463.34 514.31 470.30 C 511.37 477.27 503.18 484.40 497.00 489.00 Z"/>
</g>
<g fill="#AB4824" fill-opacity="1.00" stroke="None">
<path d="
M 679.00 450.00 
C 679.93 444.82 679.44 441.03 678.00 436.00
C 678.79 440.57 679.33 445.18 679.00 450.00 Z"/>
</g>
<g fill="#A6491F" fill-opacity="1.00" stroke="None">
<path d="
M 473.00 452.00 
C 472.73 448.08 472.85 443.93 473.00 440.00
C 472.44 443.94 472.28 447.96 473.00 452.00 Z"/>
</g>
<g fill="#E1C4B1" fill-opacity="1.00" stroke="None">
<path d="
M 484.00 455.00 
C 479.75 453.82 478.94 459.28 482.30 460.64 C 485.66 462.01 486.92 455.81 484.00 455.00 Z"/>
</g>
<g fill="#E4BEAD" fill-opacity="1.00" stroke="None">
<path d="
M 653.00 455.00 
C 649.54 454.39 648.80 459.79 652.30 460.64 C 655.81 461.49 655.40 455.43 653.00 455.00 Z"/>
</g>
<g fill="#FCAE77" fill-opacity="1.00" stroke="None">
<path d="
M 677.00 459.00 
C 674.08 466.71 666.60 471.34 658.00 470.00
C 653.34 474.53 653.80 481.66 654.00 488.00
C 650.10 486.19 646.22 482.22 643.00 479.00
C 651.65 490.35 665.33 499.38 679.78 497.78 C 694.23 496.18 708.11 480.70 700.00 466.00
C 701.65 466.14 703.35 465.82 705.00 466.00
C 699.46 463.61 683.07 454.56 677.00 459.00 Z"/>
</g>
<g fill="#FCAE77" fill-opacity="1.00" stroke="None">
<path d="
M 447.00 466.00 
C 447.46 465.87 448.57 466.18 449.00 466.00
C 449.72 465.70 450.68 464.34 452.00 465.00
C 449.08 471.81 449.88 479.38 453.00 486.00
C 465.35 502.44 482.63 499.69 497.00 489.00
C 498.96 484.57 496.33 474.62 494.00 470.00
C 491.31 470.43 488.96 469.43 487.00 469.00
C 481.48 467.78 476.13 464.70 474.00 459.00
C 472.95 460.78 462.40 457.85 459.23 460.23 C 456.06 462.61 450.41 464.16 447.00 466.00 Z"/>
</g>
<g fill="#F6CFC2" fill-opacity="1.00" stroke="None">
<path d="
M 363.00 480.00 
C 360.31 477.75 351.74 465.56 354.00 462.00
C 355.08 460.30 356.38 461.87 358.00 462.00
C 357.08 460.44 354.81 459.86 353.00 460.00
C 351.79 468.02 356.70 475.50 363.00 480.00 Z"/>
</g>
<g fill="#CB4F2B" fill-opacity="1.00" stroke="None">
<path d="
M 363.00 480.00 
C 368.89 484.21 375.77 486.62 383.00 487.00
C 388.67 488.13 391.16 479.95 397.00 479.00
C 382.10 480.28 362.27 477.18 354.00 462.00
C 351.74 465.56 360.31 477.75 363.00 480.00 Z"/>
</g>
<g fill="#CA4F2B" fill-opacity="1.00" stroke="None">
<path d="
M 768.00 487.00 
C 780.15 488.53 792.80 477.68 797.00 467.00
C 797.00 467.00 796.76 466.30 797.00 466.00
C 795.48 464.09 791.65 470.61 787.23 472.23 C 782.81 473.85 778.50 478.31 773.07 478.07 C 767.64 477.83 760.99 479.37 756.00 480.00
C 759.26 482.77 764.66 484.51 768.00 487.00 Z"/>
</g>
<g fill="#F8CEA5" fill-opacity="1.00" stroke="None">
<path d="
M 449.00 466.00 
C 451.61 467.75 448.03 473.79 449.02 476.98 C 450.02 480.16 450.99 483.32 453.00 486.00
C 449.88 479.38 449.08 471.81 452.00 465.00
C 450.68 464.34 449.72 465.70 449.00 466.00 Z"/>
</g>
<g fill="#AF5831" fill-opacity="1.00" stroke="None">
<path d="
M 487.00 469.00 
C 488.96 469.43 491.31 470.43 494.00 470.00
C 496.61 469.58 497.19 468.49 499.00 467.00
C 495.42 469.19 491.27 469.44 487.00 469.00 Z"/>
</g>
<g fill="#F0C7A4" fill-opacity="1.00" stroke="None">
<path d="
M 768.00 487.00 
C 770.27 492.33 777.65 493.33 782.00 497.00
C 780.18 499.29 776.33 497.52 774.00 497.00
C 774.62 498.71 777.29 498.37 778.00 500.00
C 767.06 505.52 757.59 515.67 745.70 520.70 C 733.80 525.73 722.92 532.33 710.22 538.22 C 697.53 544.12 684.86 545.69 671.69 551.70 C 658.53 557.70 643.09 558.76 628.22 561.22 C 613.35 563.69 594.96 564.30 579.00 564.00 C 563.04 563.70 544.43 562.79 529.67 560.33 C 514.91 557.87 500.64 554.05 487.22 549.78 C 473.80 545.50 459.62 543.07 447.90 537.10 C 436.17 531.13 424.68 525.08 412.75 519.25 C 400.82 513.42 390.40 506.65 384.00 496.00
C 386.14 495.88 388.33 494.58 390.00 494.00
C 383.05 494.15 377.34 498.90 370.00 498.00
C 370.73 496.32 372.67 494.93 374.00 494.00
C 372.08 496.29 367.04 495.60 365.00 497.00
C 359.46 502.60 372.32 510.77 376.25 514.75 C 380.18 518.73 389.42 524.19 394.92 528.08 C 400.43 531.96 409.79 536.31 416.26 539.74 C 422.72 543.17 429.93 548.09 437.00 551.00
C 457.77 559.55 480.40 567.42 501.00 573.00
C 512.08 576.00 525.86 576.26 538.00 578.00
C 536.86 586.91 537.99 594.89 538.00 604.00
C 538.10 605.73 538.72 606.85 539.00 608.00
C 539.18 606.69 538.86 605.31 539.00 604.00
C 567.46 604.51 597.82 606.99 626.00 604.00
C 626.03 606.74 624.37 609.08 625.00 612.00
C 625.94 607.96 627.60 602.10 628.00 598.00
C 628.70 590.73 627.47 583.28 628.00 576.00
C 632.47 576.81 638.03 571.80 641.00 576.00
C 650.37 571.43 665.13 568.53 676.31 565.31 C 687.48 562.08 699.41 558.76 709.31 553.31 C 719.20 547.85 730.74 544.94 739.70 538.70 C 748.66 532.45 758.17 527.45 767.25 521.25 C 776.32 515.04 783.61 506.43 789.00 498.00
C 782.40 497.06 777.61 491.81 772.00 489.00
C 776.48 487.58 785.67 484.58 789.25 481.25 C 792.82 477.92 799.62 470.58 797.00 467.00
C 792.80 477.68 780.15 488.53 768.00 487.00 Z"/>
</g>
<g fill="#FFF4D8" fill-opacity="1.00" stroke="None">
<path d="
M 365.00 497.00 
C 367.04 495.60 372.08 496.29 374.00 494.00
C 372.16 494.60 367.36 494.61 365.00 497.00 Z"/>
</g>
<g fill="#F6E4D2" fill-opacity="1.00" stroke="None">
<path d="
M 497.00 581.00 
C 498.01 579.10 499.35 574.22 501.00 573.00
C 480.40 567.42 457.77 559.55 437.00 551.00
C 456.86 562.31 477.33 567.43 500.00 572.00
C 497.48 574.35 497.54 579.23 497.00 581.00 Z"/>
</g>
<g fill="#FEEED0" fill-opacity="1.00" stroke="None">
<path d="
M 246.00 685.00 
C 241.12 661.36 227.99 637.36 234.00 612.00
C 238.17 625.91 239.23 642.91 246.31 655.69 C 253.38 668.48 257.41 684.62 272.00 689.00
C 276.99 689.86 288.41 696.56 291.92 690.92 C 295.42 685.27 291.95 673.47 292.07 666.93 C 292.20 660.38 289.60 652.63 286.00 647.00
C 299.58 647.88 311.98 652.91 325.00 656.00
C 325.90 649.26 321.91 643.93 320.00 638.00
C 330.65 641.28 340.60 647.14 350.00 653.00
C 350.69 643.84 346.94 635.82 343.00 628.00
C 342.12 626.49 340.52 624.92 340.00 623.00
C 342.11 623.40 344.66 624.37 346.00 626.00
C 346.50 626.01 347.55 625.85 348.00 626.00
C 330.39 616.71 309.01 610.10 289.25 603.75 C 269.48 597.41 255.05 584.65 239.00 572.00
C 229.49 588.77 231.92 612.50 232.00 632.00 C 232.09 651.50 239.60 668.83 246.00 685.00 Z"/>
</g>
<g fill="#D04D28" fill-opacity="1.00" stroke="None">
<path d="
M 501.00 573.00 
C 499.35 574.22 498.01 579.10 497.00 581.00
C 495.39 584.02 493.54 587.16 492.00 590.00
C 491.24 591.41 490.82 593.62 490.00 595.00
C 489.59 599.46 504.39 599.51 510.22 601.78 C 516.05 604.05 531.11 602.90 538.00 604.00
C 537.99 594.89 536.86 586.91 538.00 578.00
C 525.86 576.26 512.08 576.00 501.00 573.00 Z"/>
</g>
<g fill="#CC512D" fill-opacity="1.00" stroke="None">
<path d="
M 628.00 598.00 
C 628.12 599.99 627.91 602.00 628.00 604.00
C 633.98 603.81 642.40 603.57 646.00 600.00
C 644.34 593.35 644.61 581.67 641.00 576.00
C 638.03 571.80 632.47 576.81 628.00 576.00
C 627.47 583.28 628.70 590.73 628.00 598.00 Z"/>
</g>
<g fill="#FCDCC4" fill-opacity="1.00" stroke="None">
<path d="
M 482.00 607.00 
C 484.87 603.29 487.63 598.96 490.00 595.00
C 490.82 593.62 491.24 591.41 492.00 590.00
C 487.22 595.43 485.04 600.50 482.00 607.00 Z"/>
</g>
<g fill="#FD7B34" fill-opacity="1.00" stroke="None">
<path d="
M 482.00 607.00 
C 477.90 612.29 474.71 618.36 471.00 624.00
C 464.57 633.76 456.47 644.05 451.00 654.00
C 450.59 655.30 450.49 656.77 450.00 658.00
C 443.10 675.32 431.80 690.63 428.00 709.00
C 427.16 717.39 427.17 726.59 424.00 734.00
C 417.05 712.12 407.96 690.04 395.92 670.08 C 383.88 650.12 365.20 640.13 348.00 626.00
C 347.55 625.85 346.50 626.01 346.00 626.00
C 343.82 625.95 343.46 625.92 343.00 628.00
C 346.94 635.82 350.69 643.84 350.00 653.00
C 340.60 647.14 330.65 641.28 320.00 638.00
C 321.91 643.93 325.90 649.26 325.00 656.00
C 311.98 652.91 299.58 647.88 286.00 647.00
C 289.60 652.63 292.20 660.38 292.07 666.93 C 291.95 673.47 295.42 685.27 291.92 690.92 C 288.41 696.56 276.99 689.86 272.00 689.00
C 269.88 688.64 268.08 688.41 266.00 688.00
C 270.97 691.55 272.59 702.45 278.25 706.75 C 283.90 711.05 286.69 718.73 292.75 723.25 C 298.82 727.76 302.41 734.11 308.75 738.25 C 315.08 742.40 319.73 747.43 326.23 751.77 C 332.73 756.11 339.54 758.46 347.08 761.92 C 354.61 765.39 362.58 766.93 371.00 769.00 C 379.42 771.06 388.66 772.77 398.00 773.00 C 407.34 773.23 418.13 772.38 427.00 770.00
C 430.04 803.53 477.43 823.99 501.75 799.75 C 526.08 775.51 510.30 729.39 481.00 718.00
C 487.97 714.94 494.89 721.90 501.00 725.00
C 504.19 705.56 505.44 684.97 509.00 666.00
C 512.31 684.31 512.83 704.59 520.00 722.00
C 525.31 735.87 531.47 744.97 547.67 746.33 C 563.87 747.69 572.89 738.26 574.00 722.00
C 574.94 708.23 573.69 692.15 572.00 680.00
C 570.46 675.18 567.80 670.70 566.00 666.00
C 558.24 645.75 544.30 629.51 539.00 608.00
C 538.72 606.85 538.10 605.73 538.00 604.00
C 531.11 602.90 516.05 604.05 510.22 601.78 C 504.39 599.51 489.59 599.46 490.00 595.00
C 487.63 598.96 484.87 603.29 482.00 607.00 Z"/>
</g>
<g fill="#FB7B36" fill-opacity="1.00" stroke="None">
<path d="
M 625.00 612.00 
C 622.36 632.26 606.22 649.03 598.00 667.00
C 595.83 671.75 593.86 676.20 592.00 681.00
C 589.89 693.35 588.05 710.06 589.00 724.00
C 589.49 731.27 591.53 740.33 599.00 744.00
C 599.40 744.20 600.00 744.00 600.00 744.00
C 617.12 754.78 640.50 737.27 642.00 719.00
C 641.95 744.26 632.96 770.28 630.00 796.00
C 630.18 797.31 629.86 798.69 630.00 800.00
C 639.35 801.02 648.02 797.80 655.00 792.00
C 655.53 793.28 654.03 793.86 654.00 795.00
C 658.11 790.38 660.66 784.80 664.00 780.00
C 664.08 779.51 663.93 778.49 664.00 778.00
C 664.47 774.58 665.76 771.59 666.00 768.00
C 666.73 757.23 665.40 746.41 661.00 737.00
C 656.98 730.69 654.63 725.45 647.77 721.23 C 640.91 717.01 646.07 705.53 648.00 700.00
C 648.01 699.50 648.00 698.50 648.00 698.00
C 648.00 687.86 651.00 678.42 651.00 668.00
C 651.00 657.33 651.00 646.67 651.00 636.00
C 651.00 625.34 649.73 615.27 648.00 605.00
C 647.72 603.36 646.32 601.28 646.00 600.00
C 642.40 603.57 633.98 603.81 628.00 604.00
C 627.91 602.00 628.12 599.99 628.00 598.00
C 627.60 602.10 625.94 607.96 625.00 612.00 Z"/>
</g>
<g fill="#FEEECF" fill-opacity="1.00" stroke="None">
<path d="
M 539.00 608.00 
C 544.30 629.51 558.24 645.75 566.00 666.00
C 569.63 671.81 572.68 685.40 581.03 686.97 C 589.37 688.55 595.03 671.74 598.00 667.00
C 606.22 649.03 622.36 632.26 625.00 612.00
C 624.37 609.08 626.03 606.74 626.00 604.00
C 597.82 606.99 567.46 604.51 539.00 604.00
C 538.86 605.31 539.18 606.69 539.00 608.00 Z"/>
</g>
<g fill="#FEEBD5" fill-opacity="1.00" stroke="None">
<path d="
M 651.00 636.00 
C 651.97 646.06 651.97 658.01 651.00 668.00
C 651.00 678.42 648.00 687.86 648.00 698.00
C 656.00 686.22 652.04 665.90 653.00 652.00 C 653.96 638.10 653.93 616.97 648.00 605.00
C 649.73 615.27 651.00 625.34 651.00 636.00 Z"/>
</g>
<g fill="#EDCCAB" fill-opacity="1.00" stroke="None">
<path d="
M 246.00 685.00 
C 246.30 686.45 246.45 686.92 247.00 688.00
C 248.50 683.13 262.01 687.22 266.00 688.00
C 268.08 688.41 269.88 688.64 272.00 689.00
C 257.41 684.62 253.38 668.48 246.31 655.69 C 239.23 642.91 238.17 625.91 234.00 612.00
C 227.99 637.36 241.12 661.36 246.00 685.00 Z"/>
</g>
<g fill="#D6A46F" fill-opacity="1.00" stroke="None">
<path d="
M 343.00 628.00 
C 343.46 625.92 343.82 625.95 346.00 626.00
C 344.66 624.37 342.11 623.40 340.00 623.00
C 340.52 624.92 342.12 626.49 343.00 628.00 Z"/>
</g>
<g fill="#FDE3C4" fill-opacity="1.00" stroke="None">
<path d="
M 451.00 654.00 
C 456.47 644.05 464.57 633.76 471.00 624.00
C 464.12 632.38 454.34 643.53 451.00 654.00 Z"/>
</g>
<g fill="#EFAF85" fill-opacity="1.00" stroke="None">
<path d="
M 651.00 668.00 
C 651.97 658.01 651.97 646.06 651.00 636.00
C 651.00 646.67 651.00 657.33 651.00 668.00 Z"/>
</g>
<g fill="#FBE0C3" fill-opacity="1.00" stroke="None">
<path d="
M 428.00 709.00 
C 431.80 690.63 443.10 675.32 450.00 658.00
C 448.04 658.90 446.73 658.12 445.00 660.00
C 443.75 667.37 438.90 674.80 435.92 682.92 C 432.94 691.04 428.92 700.08 428.00 709.00 Z"/>
</g>
<g fill="#D14D27" fill-opacity="1.00" stroke="None">
<path d="
M 266.00 688.00 
C 262.01 687.22 248.50 683.13 247.00 688.00
C 251.14 696.16 255.21 705.81 260.08 713.92 C 264.95 722.03 269.80 729.73 276.08 736.92 C 282.36 744.10 287.51 750.61 294.75 757.25 C 302.00 763.89 308.58 768.90 316.75 774.25 C 324.92 779.59 332.53 784.29 341.77 788.23 C 351.02 792.17 360.92 795.37 370.99 798.01 C 381.06 800.64 393.29 799.90 404.00 802.00 C 414.71 804.10 430.38 797.13 438.00 802.00
C 443.95 805.80 447.72 812.85 454.70 816.30 C 461.68 819.76 470.87 823.14 479.00 823.00
C 481.01 822.96 485.32 822.21 488.00 822.00
C 500.00 821.05 511.56 818.00 524.00 818.00
C 527.11 817.70 531.43 816.27 535.00 816.00
C 534.92 812.88 534.24 810.19 534.00 807.00
C 532.90 800.22 530.82 792.24 530.00 785.00 C 529.19 777.76 526.36 770.91 525.01 763.99 C 523.66 757.07 523.90 748.13 521.22 741.78 C 518.54 735.42 522.80 734.76 519.67 730.33 C 516.54 725.90 520.00 722.19 520.00 722.00
C 512.83 704.59 512.31 684.31 509.00 666.00
C 505.44 684.97 504.19 705.56 501.00 725.00
C 494.89 721.90 487.97 714.94 481.00 718.00
C 510.30 729.39 526.08 775.51 501.75 799.75 C 477.43 823.99 430.04 803.53 427.00 770.00
C 418.13 772.38 407.34 773.23 398.00 773.00 C 388.66 772.77 379.42 771.06 371.00 769.00 C 362.58 766.93 354.61 765.39 347.08 761.92 C 339.54 758.46 332.73 756.11 326.23 751.77 C 319.73 747.43 315.08 742.40 308.75 738.25 C 302.41 734.11 298.82 727.76 292.75 723.25 C 286.69 718.73 283.90 711.05 278.25 706.75 C 272.59 702.45 270.97 691.55 266.00 688.00 Z"/>
</g>
<g fill="#F5BF96" fill-opacity="1.00" stroke="None">
<path d="
M 572.00 680.00 
C 577.03 695.69 576.70 712.83 580.00 729.00
C 588.44 726.16 584.90 713.54 586.78 705.78 C 588.66 698.02 588.86 688.51 592.00 681.00
C 593.86 676.20 595.83 671.75 598.00 667.00
C 595.03 671.74 589.37 688.55 581.03 686.97 C 572.68 685.40 569.63 671.81 566.00 666.00
C 567.80 670.70 570.46 675.18 572.00 680.00 Z"/>
</g>
<g fill="#CA4F29" fill-opacity="1.00" stroke="None">
<path d="
M 574.00 722.00 
C 576.79 735.24 577.61 751.34 577.98 767.02 C 578.34 782.71 578.00 801.07 578.00 817.00
C 580.06 816.50 582.25 817.11 584.00 818.00
C 584.00 817.50 584.00 817.00 584.00 817.00
C 581.02 812.97 583.94 806.13 583.00 801.00 C 582.06 795.87 583.57 788.47 584.00 784.00
C 584.00 773.27 585.30 763.51 585.00 753.00 C 584.70 742.49 586.42 731.83 589.00 724.00
C 588.05 710.06 589.89 693.35 592.00 681.00
C 588.86 688.51 588.66 698.02 586.78 705.78 C 584.90 713.54 588.44 726.16 580.00 729.00
C 576.70 712.83 577.03 695.69 572.00 680.00
C 573.69 692.15 574.94 708.23 574.00 722.00 Z"/>
</g>
<g fill="#FEE6CA" fill-opacity="1.00" stroke="None">
<path d="
M 661.00 737.00 
C 661.73 738.14 663.46 739.83 664.00 741.00
C 661.79 734.10 660.05 726.06 652.22 721.78 C 644.40 717.49 647.76 709.22 648.00 700.00
C 646.07 705.53 640.91 717.01 647.77 721.23 C 654.63 725.45 656.98 730.69 661.00 737.00 Z"/>
</g>
<g fill="#76240E" fill-opacity="1.00" stroke="None">
<path d="
M 600.00 744.00 
C 600.06 745.00 599.96 746.00 600.00 747.00
C 615.25 751.85 631.28 746.04 639.00 734.00
C 633.54 758.58 630.09 785.58 625.00 811.00
C 626.73 812.61 630.31 814.35 632.00 812.00
C 630.34 812.09 628.66 811.93 627.00 812.00
C 627.89 806.74 628.66 800.77 630.00 796.00
C 632.96 770.28 641.95 744.26 642.00 719.00
C 640.50 737.27 617.12 754.78 600.00 744.00 Z"/>
</g>
<g fill="#772311" fill-opacity="1.00" stroke="None">
<path d="
M 534.00 807.00 
C 532.20 783.42 527.35 761.12 523.00 738.00
C 531.31 743.44 539.03 747.69 550.00 748.00 C 560.97 748.31 570.99 745.61 572.00 736.00
C 579.37 746.01 574.52 762.10 576.78 775.22 C 579.04 788.34 574.71 805.44 578.00 818.00
C 578.09 817.98 578.00 817.00 578.00 817.00
C 578.00 801.07 578.34 782.71 577.98 767.02 C 577.61 751.34 576.79 735.24 574.00 722.00
C 572.89 738.26 563.87 747.69 547.67 746.33 C 531.47 744.97 525.31 735.87 520.00 722.00
C 520.00 722.19 516.54 725.90 519.67 730.33 C 522.80 734.76 518.54 735.42 521.22 741.78 C 523.90 748.13 523.66 757.07 525.01 763.99 C 526.36 770.91 529.19 777.76 530.00 785.00 C 530.82 792.24 532.90 800.22 534.00 807.00 Z"/>
</g>
<g fill="#73200E" fill-opacity="1.00" stroke="None">
<path d="
M 584.00 784.00 
C 584.00 794.67 584.00 805.33 584.00 816.00
C 588.55 809.84 583.71 799.23 585.00 791.00 C 586.29 782.77 584.72 774.32 586.33 765.33 C 587.94 756.34 586.99 751.31 587.00 741.00 C 587.01 730.69 594.92 747.08 599.00 744.00
C 591.53 740.33 589.49 731.27 589.00 724.00
C 586.42 731.83 584.70 742.49 585.00 753.00 C 585.30 763.51 584.00 773.27 584.00 784.00 Z"/>
</g>
<g fill="#5B201D" fill-opacity="1.00" stroke="None">
<path d="
M 600.00 744.00 
C 600.00 744.00 599.40 744.20 599.00 744.00
C 594.92 747.08 587.01 730.69 587.00 741.00 C 586.99 751.31 587.94 756.34 586.33 765.33 C 584.72 774.32 586.29 782.77 585.00 791.00 C 583.71 799.23 588.55 809.84 584.00 816.00
C 584.00 816.50 584.00 817.00 584.00 817.00
C 584.00 817.00 584.00 817.50 584.00 818.00
C 584.00 827.31 583.64 836.70 584.00 846.00
C 582.34 867.65 621.40 866.77 621.00 846.00
C 627.54 850.00 647.08 848.25 647.67 838.67 C 648.25 829.09 639.97 821.06 636.00 813.00
C 635.87 812.73 635.26 812.22 635.00 812.00
C 634.75 811.80 632.34 811.92 632.00 812.00
C 630.31 814.35 626.73 812.61 625.00 811.00
C 630.09 785.58 633.54 758.58 639.00 734.00
C 631.28 746.04 615.25 751.85 600.00 747.00
C 599.96 746.00 600.06 745.00 600.00 744.00 Z"/>
</g>
<g fill="#5C201D" fill-opacity="1.00" stroke="None">
<path d="
M 534.00 807.00 
C 534.24 810.19 534.92 812.88 535.00 816.00
C 535.01 816.50 535.00 817.00 535.00 817.00
C 541.18 827.81 534.92 848.18 544.75 857.25 C 554.59 866.31 573.48 862.43 577.00 850.00
C 577.89 844.15 576.48 837.90 577.00 832.00
C 577.40 827.45 578.47 822.89 578.00 818.00
C 574.71 805.44 579.04 788.34 576.78 775.22 C 574.52 762.10 579.37 746.01 572.00 736.00
C 570.99 745.61 560.97 748.31 550.00 748.00 C 539.03 747.69 531.31 743.44 523.00 738.00
C 527.35 761.12 532.20 783.42 534.00 807.00 Z"/>
</g>
<g fill="#E2A179" fill-opacity="1.00" stroke="None">
<path d="
M 666.00 768.00 
C 667.06 762.10 667.41 755.27 666.00 749.00
C 665.39 746.29 664.83 743.60 664.00 741.00
C 663.46 739.83 661.73 738.14 661.00 737.00
C 665.40 746.41 666.73 757.23 666.00 768.00 Z"/>
</g>
<g fill="#FEDEC7" fill-opacity="1.00" stroke="None">
<path d="
M 666.00 768.00 
C 665.76 771.59 664.47 774.58 664.00 778.00
C 669.28 770.22 669.03 757.52 666.00 749.00
C 667.41 755.27 667.06 762.10 666.00 768.00 Z"/>
</g>
<g fill="#F8DBC7" fill-opacity="1.00" stroke="None">
<path d="
M 654.00 795.00 
C 651.36 797.97 647.79 801.24 645.25 804.25 C 642.71 807.26 635.63 808.64 635.00 812.00
C 635.26 812.22 635.87 812.73 636.00 813.00
C 641.61 809.85 644.46 804.68 651.00 804.00
C 653.34 795.08 662.37 789.38 664.00 780.00
C 660.66 784.80 658.11 790.38 654.00 795.00 Z"/>
</g>
<g fill="#A63E24" fill-opacity="1.00" stroke="None">
<path d="
M 584.00 817.00 
C 584.00 817.00 584.00 816.50 584.00 816.00
C 584.00 805.33 584.00 794.67 584.00 784.00
C 583.57 788.47 582.06 795.87 583.00 801.00 C 583.94 806.13 581.02 812.97 584.00 817.00 Z"/>
</g>
<g fill="#CA542D" fill-opacity="1.00" stroke="None">
<path d="
M 630.00 796.00 
C 628.66 800.77 627.89 806.74 627.00 812.00
C 628.66 811.93 630.34 812.09 632.00 812.00
C 632.34 811.92 634.75 811.80 635.00 812.00
C 635.63 808.64 642.71 807.26 645.25 804.25 C 647.79 801.24 651.36 797.97 654.00 795.00
C 654.03 793.86 655.53 793.28 655.00 792.00
C 648.02 797.80 639.35 801.02 630.00 800.00
C 629.86 798.69 630.18 797.31 630.00 796.00 Z"/>
</g>
<g fill="#5C211F" fill-opacity="1.00" stroke="None">
<path d="
M 480.00 826.00 
C 479.74 825.22 478.42 824.42 479.00 823.00
C 470.87 823.14 461.68 819.76 454.70 816.30 C 447.72 812.85 443.95 805.80 438.00 802.00
C 441.95 808.94 439.73 822.60 443.01 829.99 C 446.29 837.39 444.43 849.04 453.31 852.69 C 462.18 856.35 472.66 856.70 480.25 851.25 C 487.84 845.80 482.20 832.72 480.00 826.00 Z"/>
</g>
<g fill="#D8927A" fill-opacity="1.00" stroke="None">
<path d="
M 524.00 818.00 
C 527.79 818.00 531.51 818.01 535.00 817.00
C 535.00 817.00 535.01 816.50 535.00 816.00
C 531.43 816.27 527.11 817.70 524.00 818.00 Z"/>
</g>
<g fill="#B38F85" fill-opacity="1.00" stroke="None">
<path d="
M 578.00 818.00 
C 579.67 818.00 581.33 818.00 583.00 818.00
C 582.84 827.29 582.77 837.42 584.00 846.00
C 583.64 836.70 584.00 827.31 584.00 818.00
C 582.25 817.11 580.06 816.50 578.00 817.00
C 578.00 817.00 578.09 817.98 578.00 818.00 Z"/>
</g>
<g fill="#E5A999" fill-opacity="1.00" stroke="None">
<path d="
M 479.00 823.00 
C 478.42 824.42 479.74 825.22 480.00 826.00
C 480.00 825.00 480.00 824.00 480.00 823.00
C 482.76 823.76 485.91 822.40 488.00 822.00
C 485.32 822.21 481.01 822.96 479.00 823.00 Z"/>
</g>
<g fill="#997876" fill-opacity="1.00" stroke="None">
<path d="
M 577.00 850.00 
C 578.61 844.32 577.05 837.56 577.00 832.00
C 576.48 837.90 577.89 844.15 577.00 850.00 Z"/>
</g>
</svg>